<svg width="380" height="400"
  xmlns="http://www.w3.org/2000/svg">
  <!-- Body -->
  <path d="M190.781205,92.2114854 L222.679476,115.635084 C231.330944,117.969562 238.558965,120.874047 244.363541,124.34854 C245.734683,125.597945 247.391836,128.128197 241.70538,127.690906 C236.018925,127.253615 230.01796,127.049392 229.233339,128.988954 C228.448719,130.928516 231.889854,133.24802 230.303794,135.864997 C229.246421,137.609648 224.250967,133.234999 215.31743,122.74105 L183.729774,109.642447 L190.781205,92.2114854 Z M68.3079281,93.0198914 L89.2053198,93.1020711 C76.3021447,134.755739 69.3363474,156.856914 68.3079281,159.405597 C65.9939846,165.140133 70.8906002,173.873732 72.9845874,178.567103 C66.1645409,181.61887 66.8912241,170.316929 58.2879189,174.319492 C50.4352209,177.972846 44.4616931,184.59248 35.3890352,178.994371 C34.2736052,178.306117 33.0512757,175.714714 36.0045784,173.68967 C43.3623323,168.644547 53.9653015,159.814672 55.3979297,156.908251 C57.3515741,152.944826 61.6549068,131.648706 68.3079281,93.0198914 Z" id="Skin" fill="#B28B67"></path>
  <path d="M122.731734,9.58031077 L131.216685,7.34914009 C165.5935,32.1628362 183.361709,84.0563407 224.996623,108.72736 L216.58973,121.240539 C147.889238,118.771641 125.383314,55.5469019 122.731734,9.58031077 Z" id="Coat-Back" fill="#E87613" transform="translate(173.864178, 64.294840) rotate(5.000000) translate(-173.864178, -64.294840) "></path>
  <path d="M90,114 C124.671756,114 150.175573,114 166.511451,114 C170.007634,114 169.348845,108.951637 168.84345,106.404206 C163.010588,77.0037663 140.241304,45.3115155 140.241304,3.4607303 L118.1718,0 C99.917485,29.3584068 93.6048263,65.5045499 90,114 Z" id="Shirt" fill="#DDE3E9"></path>
  <path d="M90.6148413,28.8579585 C87.4095228,27.9365884 84.8712423,25.7876656 83,22.4111902 C74.933557,7.85607578 77.8467271,-0.157592785 86.4671964,-2.7917309 C95.0876658,-5.42586901 102.775319,-2.04281037e-14 116.510031,-7.10542736e-15 C117.257085,-6.21724894e-15 117.941303,0.0468325343 118.562683,0.140497603 L125.471587,0.534739944 C145.293986,67.7151944 150.760885,112.536948 141.872285,135 L81.6518141,135 C78.0838152,143.319871 74.6695413,150.319871 71.4089926,156 L55,156 C53.4556832,106.067091 65.327297,63.6864104 90.6148413,28.8579585 Z" id="Coat-Front" fill="#FF9B21"></path>
  <path d="M94.7652287,100.497634 C96.6591508,116.344024 99.7374079,127.844812 104,135 L81.6518141,135 C85.813785,125.295103 90.1849231,113.794314 94.7652283,100.497633 Z" id="Shade" fill-opacity="0.1" fill="#000000"></path>
  <!-- Body -->
  <path d="M198,77.6170876 L234.234567,61.7041739 C240.582018,55.3790221 246.711387,50.5716141 252.622674,47.2819501 C254.390261,46.7192094 257.410101,46.5491987 254.188168,51.2551684 C250.966235,55.961138 247.78889,61.0560141 249.076289,62.7052963 C250.363689,64.3545786 254.093006,62.5342201 255.566345,65.2162765 C256.548571,67.0043141 250.262286,69.1431805 236.707491,71.6328758 L209.56994,92.4392868 L198,77.6170876 Z M51.5082829,82 L72,86.0658446 C51.3920824,124.471059 40.3404263,144.825845 38.8450319,147.130202 C35.4803944,152.315007 38.6196693,161.817238 39.7793043,166.821179 C32.5044044,168.51462 35.3734014,157.565005 26.1671562,159.851185 C17.7641225,161.937904 10.6393632,167.293169 2.8038784,160.07074 C1.84055159,159.182785 1.13535082,156.407288 4.41981989,154.983749 C12.6026301,151.437195 24.6920431,144.796343 26.6523424,142.218096 C29.3255608,138.702197 37.6108743,118.629498 51.5082829,82 Z" id="Skin" fill="#B28B67"></path>
  <path d="M123.280247,9.87718027 L131.765198,7.64600959 C152.120135,24.2050747 163.602366,67.2616718 176.61267,71.9556463 C188.913385,76.3936093 205.208593,69.6320097 224.503164,60.7390322 L231.796052,73.8353428 C215.409826,95.0000245 178.298612,114.916545 161.84294,106.839809 C135.533742,93.9267871 125.046804,40.501408 123.280247,9.87718027 Z" id="Coat-Back" fill="#DB2721" transform="translate(177.538150, 58.161768) rotate(5.000000) translate(-177.538150, -58.161768) "></path>
  <path d="M90,114 C124.671756,114 150.175573,114 166.511451,114 C170.007634,114 169.348845,108.951637 168.84345,106.404206 C163.010588,77.0037663 140.241304,45.3115155 140.241304,3.4607303 L118.1718,0 C99.917485,29.3584068 93.6048263,65.5045499 90,114 Z" id="Shirt" fill="#DDE3E9"></path>
  <path d="M82.3687546,84.2331696 C66.7713811,112.367832 53.6609446,132.623442 43.0374452,145 L27,141.85882 C37.3305927,77.7906722 67.2466105,30.5043988 116.748053,3.81764932e-14 L117,2.9470116e-14 L125.486398,0 C145.298923,67.5369477 150.760885,112.536948 141.872285,135 L73,135 C74.0896281,118.56345 77.5833963,101.181199 82.3687561,84.2331662 Z" id="Coat-Front" fill="#FF4133"></path>
  <!-- Body -->
  <path d="M194.04441,89.1225115 L222.372314,116.757535 C230.61469,120.273345 237.368143,124.155511 242.632673,128.40403 C243.816587,129.832102 245.10547,132.568362 239.535214,131.343925 C233.964957,130.119488 228.050816,129.082079 227.003896,130.893567 C225.956977,132.705055 229.041811,135.480899 227.106974,137.851671 C225.817082,139.432186 221.479076,134.404878 214.092956,122.769747 L184.635682,105.402467 L194.04441,89.1225115 Z M68.3079281,93.0198914 L89.2053198,93.1020711 C76.3021447,134.755739 69.3363474,156.856914 68.3079281,159.405597 C65.9939846,165.140133 70.8906002,173.873732 72.9845874,178.567103 C66.1645409,181.61887 66.8912241,170.316929 58.2879189,174.319492 C50.4352209,177.972846 44.4616931,184.59248 35.3890352,178.994371 C34.2736052,178.306117 33.0512757,175.714714 36.0045784,173.68967 C43.3623323,168.644547 53.9653015,159.814672 55.3979297,156.908251 C57.3515741,152.944826 61.6549068,131.648706 68.3079281,93.0198914 Z" id="Skin" fill="#B28B67"></path>
  <path d="M122.01899,9.23199981 L130.503942,7.00082913 C148.576175,42.7520052 177.414525,74.1501034 217.01899,101.195124 L192.061793,137.56505 C151.33882,97.6857553 124.670571,55.1985909 122.01899,9.23199981 Z" id="Coat-Back" fill="#191847" transform="translate(169.518990, 72.282940) rotate(5.000000) translate(-169.518990, -72.282940) "></path>
  <path d="M90,114 L167,114 C149.16087,70.6251468 140.241304,33.7787236 140.241304,3.4607303 L117.014208,0 C98.7598929,29.3584068 93.6048263,65.5045499 90,114 Z" id="Shirt" fill="#DDE3E9"></path>
  <path d="M116.522435,0.0164198669 C116.525484,0.0109456263 116.528534,0.00547233727 116.531583,-1.73374996e-14 L118.047752,-4.26343884e-14 C119.86198,0.0624731357 122.625282,0.175030894 126.337658,0.337673275 L131.950158,16.3768801 C132.543836,35.9324229 136.010826,75.3421183 142.351127,134.605966 L91.8760816,134.605966 C92.0084015,138.699076 92.2265759,142.83042 92.5306047,147 L55,147 C60.6139164,83.6639633 81.1152373,34.6639633 116.503963,1.42108547e-14 L116.522435,0.0164198605 Z" id="Coat-Front" fill="#2F3676"></path>
  <path d="M95.2102301,82.2331012 C96.6467433,107.747892 100.243333,125.336858 106,135 L91.889081,135 C91.27131,116.642855 92.3783599,99.0539088 95.2102289,82.2331082 Z" id="Shade" fill-opacity="0.1" fill="#000000"></path>
  <polygon id="Light" fill-opacity="0.2" fill="#FFFFFF" points="103.110899 104 128 92.4292718 128 104"></polygon>
  <!-- Body -->
  <path d="M190.358872,88.6100216 L220.545493,114.201672 C229.013042,117.13396 236.02085,120.535571 241.568917,124.406506 C242.849565,125.748514 244.32618,128.3882 238.68408,127.555307 C233.04198,126.722415 227.069879,126.100082 226.151873,127.980187 C225.233867,129.860292 228.504819,132.414187 226.740072,134.914152 C225.563574,136.580795 220.885448,131.868337 212.705694,120.776779 L182.108696,105.506639 L190.358872,88.6100216 Z M53.6671405,77.5359191 L71.3789189,80.1081345 C52.3668948,121.357659 42.1743233,143.172797 40.8012044,145.553548 C37.7116869,150.910237 41.3451669,160.240318 42.7655846,165.17944 C35.5871864,167.252341 37.8797238,156.161524 28.8030963,158.927786 C20.5183715,161.452702 13.6817028,167.176559 5.47644547,160.370261 C4.4676573,159.533467 3.61787693,156.797168 6.82426992,155.202852 C14.8125642,151.230829 26.541227,143.962534 28.3644086,141.283781 C30.8506424,137.630823 39.2848864,116.381535 53.6671405,77.5359191 Z" id="Skin" fill="#B28B67"></path>
  <path d="M122.979272,9.21054221 L133.596123,4.63843187 C151.668356,40.3896079 176.923065,74.3010145 216.52753,101.346035 L208.768287,117.911928 C174.615844,101.621394 142.570612,89.4491188 127.58307,61.8321985 C122.552864,52.5632462 123.64558,20.7613641 122.979272,9.21054221 Z" id="Coat-Back" fill="#C5CFD6" transform="translate(169.753401, 61.275180) rotate(5.000000) translate(-169.753401, -61.275180) "></path>
  <path d="M90,110 C121.438326,113.333333 146.183737,113.333333 164.236234,110 C166.472817,109.587022 166.825667,105.842388 165.788454,103.300966 C149.636353,63.7244027 138.560302,29.1916266 138.560302,1.70263734 C135.596594,3.1967882 130.409827,3.42070538 123,2.37438888 C103.086202,30.7026762 93.9325378,63.2061447 90,110 Z" id="Shirt" fill="#323337"></path>
  <path d="M118.049397,6.01740879e-14 L126.348425,5.5067062e-14 C128.280769,11.364871 134.375512,165.262588 153.190593,215.605966 L51.3853184,215.605966 C53.5924278,169.487243 71.0028709,114.087392 88.6398091,67.7283096 C73.0444357,81.9994875 59.4517855,106.180947 47.8618586,140.272687 L28.7926212,135.377648 C42.9712244,74.2810826 72.1224478,29.374879 116.246291,0.659036861 C116.341837,0.438307691 116.436936,0.218626329 116.531583,6.10622664e-14 L117.266004,6.06181771e-14 C117.53632,-0.173493435 117.807193,-0.346385506 118.078622,-0.518676213 L118.049397,6.1284311e-14 Z" id="Coat-Front" fill="#DDE3E9"></path>
  <!-- Body -->
  <path d="M192,65.3107899 L231.482876,59.9251648 C239.381053,55.5320264 246.646993,52.5579486 253.280695,51.0029313 C255.147488,50.9484265 258.117196,51.6270536 253.693154,55.3151968 C249.269111,59.00334 244.780296,63.0831966 245.568527,65.0514942 C246.356757,67.0197919 250.471061,66.2874533 251.152638,69.3148625 C251.607023,71.3331352 244.929759,71.6610844 231.120845,70.2987101 L199.083874,83 L192,65.3107899 Z M67.9697919,74.4496834 L89.8671837,74.5318631 C65.8560993,128.56567 53.3363474,156.856914 52.3079281,159.405597 C49.9939846,165.140133 54.8906002,173.873732 56.9845874,178.567103 C50.1645409,181.61887 50.8912241,170.316929 42.2879189,174.319492 C34.4352209,177.972846 28.4616931,184.59248 19.3890352,178.994371 C18.2736052,178.306117 17.0512757,175.714714 20.0045784,173.68967 C27.3623323,168.644547 37.9653015,159.814672 39.3979297,156.908251 C41.3515741,152.944826 50.8755281,125.458637 67.9697919,74.4496834 Z" id="Skin" fill="#997659"></path>
  <path d="M123.473568,9.66927317 L140.652814,9.31280705 C148.188654,47.0006412 173.203746,69.0336905 223.790464,56.4079457 L234.893349,104.819132 C187.489073,115.210412 143.760505,99.6935282 130.595778,48.4746485 C127.187846,35.2156986 124.201379,21.3681777 123.473568,9.66927317 Z" id="Clothes-Back" fill="#AFB9C5" transform="translate(179.183459, 58.591470) rotate(5.000000) translate(-179.183459, -58.591470) "></path>
  <path d="M119.490817,0.0159395536 L145.467604,5.96527657 C145.467604,50.6444246 159.700025,79.150459 167,112 L96.8436541,112 C95.8553795,123.350899 95.2484887,135.017565 94.9322404,147 L42.4016357,147 C54.3053653,83.6639633 79.4301113,34.6639633 117.775873,0 L119.477154,0 L119.490817,0.0159395536 Z" id="Clothes" fill="#C5CFD6"></path>
  <path d="M107.912453,48.2592493 C106.104463,76.1005287 107.167794,97.3474456 111.102445,112 L96.8436541,112 C98.8014235,89.5139021 102.255877,68.2669888 107.91245,48.25926 Z" id="Shade" fill-opacity="0.1" fill="#000000"></path>
  <!-- Body -->
  <path d="M158.638039,42.7002327 L193.347821,23.6898218 C199.119845,16.8355222 204.806897,11.5121983 210.408976,7.71984988 C212.120791,7.00519513 215.114322,6.57263502 212.314801,11.541507 C209.515281,16.510379 206.794075,21.8627914 208.22032,23.3935933 C209.646565,24.9243953 213.203036,22.7859324 214.904525,25.3293729 C216.038851,27.0249998 209.962902,29.703613 196.676679,33.3652124 L171.455792,56.4576422 L158.638039,42.7002327 Z M213,58.7398397 L228.246523,50.3642065 C230.385826,42.2239107 232.943102,38.1282526 235.918351,38.0772323 C238.203961,37.0137608 234.223587,47.2997848 238.556381,46.4077826 C242.889175,45.5157805 253.464286,37.6506887 255.286431,39.2475996 C257.982176,41.6101262 255.578484,48.864452 252.746364,52.4730906 C247.453134,59.2176317 243.070569,61.5240612 232.238377,64.5443446 C226.574749,66.1235046 220.451364,69.288795 213.868224,74.0402157 L213,58.7398397 Z" id="Skin" fill="#997659"></path>
  <path d="M142.857986,34.7503025 C154.885997,36.5253162 171.300289,36.5253162 190.103565,28.3861499 L194.443447,44.4123074 C180.805809,54.2415559 162.712714,61.226516 148.287694,58.5246963 C136.919984,56.3955135 133.271725,41.6595451 142.857986,34.7503025 Z" id="Sleeve" fill="#2026A2" transform="translate(165.898282, 43.748060) rotate(-9.000000) translate(-165.898282, -43.748060) "></path>
  <path d="M158.104267,62.7612342 C171.011057,65.9801048 192.654946,62.184167 223.035933,51.3734208 C230.571674,66.9635189 234.055257,78.0780631 233.486685,84.7170535 C207.424274,98.3310492 185.086537,104.400834 166.683227,104.801533 C167.268059,115.72137 165.938918,126.111847 161.473933,135.605966 C152.29468,155.124265 98.5450578,137.048144 80.4727876,140.605966 C69.1554006,103.85132 91.0379108,88.9143806 91.0555178,65.3966157 C91.0747993,39.6421572 111.75441,-1.42108547e-13 114.797001,-1.42108547e-13 L142.54375,1.15166749e-13 C144.0747,19.6690193 151.7804,41.3459827 158.104267,62.7612342 Z" id="Clothes" fill="#1F28CF"></path>
  <!-- Body -->
  <path d="M191.456243,2.34082269 L229.360019,-9.03759567 C236.431,-14.5420411 243.100557,-18.5666331 249.36869,-21.1113719 C251.191683,-21.4545034 254.209733,-21.2552209 250.438302,-16.9769837 C246.666871,-12.6987465 242.892301,-8.02906778 243.969107,-6.23518449 C245.045914,-4.44130119 248.969279,-5.79360164 250.104775,-2.95198204 C250.861773,-1.05756897 244.361683,0.299249329 230.604506,1.11847287 L201.133571,18.4625605 L191.456243,2.34082269 Z M188.106855,69.1681252 L220.005126,92.5917238 C228.656594,94.9262021 235.884616,97.8306872 241.689192,101.305179 C243.060333,102.554584 244.717486,105.084837 239.031031,104.647546 C233.344575,104.210255 227.34361,104.006032 226.55899,105.945594 C225.774369,107.885156 229.215504,110.204659 227.629445,112.821636 C226.572072,114.566288 221.576617,110.191639 212.64308,99.6976902 L181.055424,86.5990869 L188.106855,69.1681252 Z" id="Skin" fill="#B28B67"></path>
  <path d="M126.984936,15.649923 C152.146796,42.4399518 182.83581,59.9216266 224.690767,75.4277614 L215.396057,94.0136202 C172.211363,89.9419212 149.124049,86.6900124 131.024869,59.8586619 C126.482342,53.1245369 118.360034,29.953677 113.494175,17.9210142 L126.984936,15.649923 Z" id="Coat-Back" fill="#2026A2" transform="translate(169.092471, 54.831772) rotate(15.000000) translate(-169.092471, -54.831772) "></path>
  <path d="M90,114 L167,114 C149.558211,60.8053811 140.648283,24.2959016 140.270216,4.47156148 C140.250941,3.46089747 138.384379,1.67996472 137.55857,1.91319372 C131.519523,3.61877223 125.057267,2.98104099 118.1718,0 C99.917485,29.3584068 93.6048263,65.5045499 90,114 Z" id="Shirt" fill="#F2F2F2"></path>
  <path d="M124.742502,0.0473953679 C146.814238,0.228130238 182.624,4.25865631 223.922675,-9 L228,11.3734803 C196.78685,31.4482286 165.18092,46.9990656 137.486251,44.790754 C149.512444,96.3770989 148.957979,138.605966 122.407472,138.605966 C109.728284,138.605966 96.0428359,138.605966 81.3511268,138.605966 C74.8304314,94.783947 91.9680949,34.0236152 107.855955,3.37659428 C108.462665,2.20627687 109.75441,-3.65929509e-13 112.797001,-3.65929509e-13 C115.448059,-3.65929509e-13 119.424647,-3.65929509e-13 124.726763,-3.65929509e-13 C124.73201,0.0157984696 124.737257,0.0315969258 124.742502,0.0473953679 Z" id="Coat-Front" fill="#1F28CF"></path>
  <!-- Body -->
  <path d="M111.093239,2.28693343 C111.326698,1.52679592 111.563732,0.764490814 111.80423,9.9475983e-14 L112.692183,0.417788314 C112.830751,0.274814904 112.970357,0.135528873 113.111009,-8.52651283e-14 L141.101479,4.32798224 C141.101479,20.0687681 153.625725,34.7964415 161.54868,47.4680378 C173.864991,67.1661596 195.780651,88.999709 181.72922,118.263682 C169.06816,144.632022 136.088855,148.914077 82.7913029,131.10985 C82.7913029,116.907461 94.4646183,102.629645 94.8366189,85.3605479 C95.1907472,68.9211259 98.2646207,19.1125342 111.093239,2.28693343 Z" id="Shirt" fill="#C1DEE2"></path>
  <path d="M145.863007,110.787221 C147.734877,101.126929 148.949202,94.6776016 149.505985,91.4392393 C164.417959,108.29011 173.032716,116.813278 175.350255,117.008742 C179.708836,117.37635 182.929474,113.51125 183.84651,114.597847 C185.362212,119.097853 181.081226,130.362106 172.89821,132 C168.990655,132.782127 162.94394,124.724092 160.45259,121.868948 C159.4727,120.745971 154.609505,117.052062 145.863007,110.787221 Z M171.62123,59.2823205 C175.486784,59.2823205 177.563178,60.8804131 179.848781,64.1046411 C182.134384,67.328869 184.297191,82.5350373 180.6276,82.5350373 C176.958008,82.5350373 161.583419,76.656821 161.583419,72.7050102 C161.583419,68.7531993 172.074145,67.079644 172.074145,64.1046411 C172.074145,61.1296381 167.755676,59.2823205 171.62123,59.2823205 Z" id="Skin" fill="#B28B67"></path>
  <path d="M138.059083,125.487626 C137.829455,126.309648 137.595361,127.147106 137.356799,128 C93.560817,97.3905148 93.5398055,60.2964284 106.564993,18.7185807 C96.7475495,59.6508736 100.747151,94.1732973 138.059083,125.487626 Z" id="Shade" fill-opacity="0.2" fill="#000000"></path>
  <!-- Body -->
  <path d="M197.692975,90.2442388 L227.879596,115.83589 C236.347145,118.768177 243.354953,122.169788 248.90302,126.040723 C250.183668,127.382731 251.660283,130.022417 246.018183,129.189525 C240.376083,128.356632 234.403982,127.734299 233.485976,129.614404 C232.56797,131.49451 235.838922,134.048404 234.074175,136.548369 C232.897677,138.215012 228.219551,133.502554 220.039797,122.410996 L189.442799,107.140857 L197.692975,90.2442388 Z M54.3748075,70.4422362 L71.7206892,74.8517457 C48.5010655,113.888004 36.0840272,134.518222 34.4695742,136.742401 C30.8370549,141.746803 33.4753713,151.405575 34.3717289,156.466114 C27.0159775,157.777312 30.4552622,146.986888 21.1392043,148.78923 C12.6359386,150.434324 5.23841582,155.412199 -2.21044035,147.785504 C-3.12623345,146.847846 -3.68533756,144.037711 -0.329858103,142.787288 C8.0298649,139.672029 20.4540206,133.669529 22.5472206,131.196025 C25.4016727,127.82296 36.0108683,107.571697 54.3748075,70.4422362 Z" id="Skin" fill="#B28B67" transform="translate(123.586250, 113.509597) rotate(-4.000000) translate(-123.586250, -113.509597) "></path>
  <path d="M203.320455,87.6779032 C207.424546,87.3832636 211.888791,88.063152 216.675075,89.6758318 C219.030261,90.4693828 220.296216,93.0219384 219.502665,95.3771242 C219.041777,96.7449968 217.987543,97.7454511 216.723241,98.1883982 C217.639067,98.8565328 218.563007,99.520979 219.495159,100.181671 L211.447983,116.609623 C177.58505,99.7255288 145.757134,86.9958405 131.253857,59.1215578 C126.386182,49.766228 128.033751,17.9882599 127.569134,6.42756866 L138.264162,2.04144427 C153.172616,32.858252 173.349023,62.4232387 203.320455,87.6779032 Z" id="Back-Arm" fill="#69A1AC"></path>
  <path d="M90,113.909745 C121.438326,117.363418 146.183737,117.363418 164.236234,113.909745 C166.472817,113.481858 166.374598,103.840401 165.337385,101.207228 C149.185283,60.2018743 138.560302,30.1840325 138.560302,1.70263734 C135.596594,3.25072994 130.409827,3.48273097 123,2.39864042 C103.086202,31.7496339 93.9325378,65.4265407 90,113.909745 Z" id="Shirt" fill="#191847"></path>
  <path d="M84.1585766,118.757813 C83.0909039,117.753244 82.5343141,116.247337 82.8078928,114.695795 L83.3288374,111.741372 C83.6818668,109.739242 85.3079057,108.281318 87.2277662,108.053234 C87.5633833,106.552966 87.8527505,105.062753 88.0917371,103.583451 C90.1105318,91.0873271 86.6613147,78.8344715 86.8233023,66.8021056 C70.7431982,80.5215474 56.3180804,104.211193 43.5479488,137.871041 L24.6611622,132.313477 C25.3818,129.636227 26.1282539,126.991859 26.9005241,124.380374 C24.7206054,123.141961 22.1733635,117.465977 24.0066041,116.516161 C25.8999362,115.53521 27.9056982,114.844785 30.0179817,114.438414 C47.3353888,62.2791261 75.6546193,24.1329883 114.975674,-4.19220214e-13 L120.377288,-4.12114787e-13 L126.348425,-1.0658141e-14 C123,44.2807404 169.249642,140.9549 153.190593,223.518112 C123.507857,230.146789 81.1319105,209.522766 39.8828129,226 C41.4176928,192.750911 72.1631413,153.690797 84.1585803,118.757804 Z" id="Coat-Front" fill="#89C5CC"></path>
  <polygon id="Shade-Lapel" fill-opacity="0.1" fill="#000000" points="119.105759 1 113.946604 16.8654451 124.335997 28.7590435 114.946604 38.1055065 137.662251 77 109.883587 38.1832119 119.105759 28.7590435 109.883587 18.2484583"></polygon>
  <path d="M131,92 C128.790861,92 127,90.209139 127,88 C127,85.790861 128.790861,84 131,84 C133.209139,84 135,85.790861 135,88 C135,90.209139 133.209139,92 131,92 Z M136,115 C133.790861,115 132,113.209139 132,111 C132,108.790861 133.790861,107 136,107 C138.209139,107 140,108.790861 140,111 C140,113.209139 138.209139,115 136,115 Z M137,138 C134.790861,138 133,136.209139 133,134 C133,131.790861 134.790861,130 137,130 C139.209139,130 141,131.790861 141,134 C141,136.209139 139.209139,138 137,138 Z" id="Buttons" fill-opacity="0.4" fill="#000000"></path>
  <!-- Body -->
  <path d="M199.493124,92.4603344 L227.821028,120.095357 C236.063404,123.611168 242.816857,127.493333 248.081387,131.741853 C249.265301,133.169925 250.554184,135.906184 244.983927,134.681747 C239.413671,133.45731 233.49953,132.419902 232.45261,134.23139 C231.405691,136.042878 234.490525,138.818722 232.555688,141.189494 C231.265796,142.770009 226.92779,137.742701 219.54167,126.10757 L190.084396,108.74029 L199.493124,92.4603344 Z M60.9697919,67.4496834 L82.8671837,67.5318631 C66.1894326,121.56567 57.3363474,149.856914 56.3079281,152.405597 C53.9939846,158.140133 58.8906002,166.873732 60.9845874,171.567103 C54.1645409,174.61887 54.8912241,163.316929 46.2879189,167.319492 C38.4352209,170.972846 32.4616931,177.59248 23.3890352,171.994371 C22.2736052,171.306117 21.0512757,168.714714 24.0045784,166.68967 C31.3623323,161.644547 41.9653015,152.814672 43.3979297,149.908251 C45.3515741,145.944826 51.2088615,118.458637 60.9697919,67.4496834 Z" id="Skin" fill="#B28B67"></path>
  <path d="M122.768272,9.7139848 L131.253224,7.48281413 C149.019938,54.2642227 221.602897,80.8616426 227.451896,98.4190631 C229.596879,104.857833 225.154909,108.596168 227.774893,110.385298 L217.29519,119.561394 C215.205566,117.515062 211.513381,121.915723 202.815928,119.824345 C194.118475,117.732967 127.737533,66.5128914 122.768272,9.7139848 Z" id="Clothes-Back" fill="#DB2721" transform="translate(175.413267, 63.943241) rotate(5.000000) translate(-175.413267, -63.943241) "></path>
  <path d="M142.240708,11.7336597 C141.243756,75.4830742 178.095832,91.7445602 169.887262,117.318245 C163.108761,138.436573 98.2273311,161.138686 87,140.43774 C82.4553197,132.058262 80.3933796,121.923875 80.1594269,110.905608 C77.2899563,119.370535 75.0205237,126.657823 73.3511268,132.767479 C70.4711839,143.30749 59.3062598,144.982871 59.3062598,149.043262 L44.5966299,144.982871 C45.5943495,139.466662 38.6598745,136.780597 40.5191881,124.456905 C48.8500046,69.239525 71.2334081,29.2141817 107.669398,4.38087468 L108.046347,-1.0097438 C108.200449,-3.21350145 110.111872,-4.87507585 112.315629,-4.72097411 L139.249859,-2.83754931 C141.453616,-2.68344757 143.115191,-0.772024866 142.961089,1.43173278 L142.240708,11.7336597 Z" id="Clothes-Front" fill="#FF4133"></path>
</svg>