<svg width="380" height="400"
  xmlns="http://www.w3.org/2000/svg"
  xmlns:xlink="http://www.w3.org/1999/xlink">
  <!-- Hair -->
  <path d="M78.46395,27.6852568 C75.3008195,27.1665378 66.7839511,26.8099042 65.2132884,26.8101344 C64.2095609,26.8101344 63.1218259,27.0394482 62.5273474,26.1178184 C62.0405177,25.3631089 62.2188613,24.0866873 62.0735698,23.2108742 C61.9048664,22.1934668 61.6652388,21.1891827 61.4228569,20.1874312 C60.7331241,17.3368945 59.6901472,14.6249591 58.2308058,12.0787928 C55.4925323,7.30188179 51.4810649,3.56010629 46.4167508,1.38277606 C40.824292,-1.02133542 34.4959652,-1.57182675 28.4804855,-1.08418951 C22.0431327,-0.562477519 16.2158664,1.56258942 10.137955,3.56240864 C4.34603603,5.46806184 -1.7203989,6.21816672 -7.77811175,5.28755777 C-13.8815008,4.35004179 -18.4931849,1.0420286 -23.6412768,-2.09768297 C-28.9114778,-5.31199061 -34.9343023,-7.4142643 -41.1646205,-6.93100152 C-46.9804104,-6.47974137 -52.3405866,-4.0783927 -57.1496651,-0.870531642 C-61.6491098,2.13080883 -65.3617312,5.74181098 -67.4577843,10.8240133 C-69.7126711,16.2909379 -69.7106053,22.291777 -66.0025745,27.1232537 C-60.627938,34.1265349 -50.6501101,35.9375616 -42.3489869,35.7575181 C-37.5474828,35.6536822 -32.8318224,34.7771784 -28.298637,33.1828026 C-22.2530892,31.0563543 -17.0287938,27.4522592 -11.3729852,24.5280473 C-8.71871903,23.1558481 -5.97516638,22.0288489 -3.09940537,21.2170411 C-0.308799399,20.4289475 2.43980288,20.0674789 4.96645123,21.7532579 C7.63930914,23.5366564 10.0344377,25.2885128 13.0922147,26.4049212 C16.0255874,27.4759733 19.132713,28.0750442 22.2579713,28.0508696 C28.338637,28.0039017 34.3327705,26.1092997 40.2385356,24.8402457 C45.0544999,23.8055706 50.2074119,22.7743491 55.1172534,23.7689633 C57.1660236,24.1840766 60.1586146,25.0410104 60.8986141,27.1702216 C48.4441749,29.4274433 43.5527072,44.8301494 47.0638027,56.1372093 C48.958789,62.2400423 60.3498117,69.3741897 64.7787912,66.1658382 C67.5846772,64.1332552 65.881216,61.4648419 64.7787912,59.7033156 C62.6675892,56.3299158 61.9452634,51.9966672 65.8518364,49.6480423 C69.2215424,47.6224367 72.7645562,52.4327123 72.8315785,52.4274169 C73.7577255,52.3544325 81.7604403,47.8285457 87.2741651,41.224129 C92.7134751,41.5465656 93.5386971,37.9600245 92.2398964,35.026908 C90.9410957,32.0937915 82.8343998,28.4024381 78.46395,27.6852568 Z" id="hair" fill="#191847"></path>
  <!-- Hair -->
  <path d="M69.729818,53.8670262 C68.9449555,53.3276287 68.0072604,53 67,53 C64.2385763,53 62,55.4624339 62,58 C62,60.6398741 63.246606,62.6810346 65.026826,63.5469713 C64.0760216,65.4058954 63.1199761,66.7549721 62,67 C57.6781395,66.5628085 52,55.8205201 52,47 C52,37.3455086 59.6819829,29 74,29 C86.8690713,29 91.7485692,34.3062174 92,39 C86.4853531,40.5156046 76.8492499,41.0992165 63,41 L63,42 L75,43 L77,49 C73.8180725,48.7624609 71.5442799,50.9449742 69.729818,53.8670262 Z" id="Combined-Shape" fill="#191847"></path>
  <!-- Hair -->
  <path d="M82.6634951,28.3699763 C79.3840534,27.3699763 74.6234565,27.0308443 72.6208149,27.2602642 C73.7600087,24.5308439 74.2120576,21.4899413 73.8435286,18.5290858 C73.4853344,15.6520661 72.1997702,13.2023672 71.0108165,10.6353788 C70.4627695,9.45216518 69.8416903,8.27540043 68.9156982,7.37037661 C67.972405,6.44834378 66.7783223,5.83972796 65.5262119,5.54936581 C64.2448581,5.2521517 62.9050174,5.27689939 61.6216732,5.54662502 C61.0539519,5.66592985 60.5445644,5.92549845 59.9877902,6.0697928 C59.4176191,6.21763405 59.141031,5.86076752 58.7271824,5.50212755 C57.7298424,4.63797369 56.2677456,4.21137833 55.0059895,4.0587004 C53.5903607,3.88748186 52.1214506,4.10102137 50.7713517,4.56639079 C49.457233,5.01942668 48.1947879,5.75508602 47.2446815,6.82681415 C46.8216464,7.30387223 46.4376536,7.8468704 46.188089,8.44637714 C46.0857368,8.69240304 46.0688185,8.83814839 45.8233112,8.9282719 C45.5962532,9.01170466 45.3306889,9.014123 45.0963584,9.0935252 C42.8305256,9.86094542 40.8932607,11.6116631 39.8384289,13.8595111 C39.2230147,15.1708968 38.9314987,17.4797836 39.0113441,20.0676663 C39.0911894,22.655549 41.4279109,29.4080735 43.613439,31.8710732 C45.5642539,34.0695065 48.4317213,35.5202692 51.1990566,36.1553256 C49.36223,38.2548487 48.1395162,40.8784262 47.2353419,43.5466625 C46.2532361,46.4450442 45.6454006,49.4566043 45.4209456,52.525076 C45.2077438,55.4404668 45.187993,58.5235291 45.8714634,61.3766879 C46.5108389,64.0448435 47.8781623,66.233684 50.1607604,67.6222954 C51.2063292,68.2583997 52.331284,68.7362639 53.4627459,69.1730163 C54.5778253,69.6034004 55.6962731,70.021854 56.8643276,70.2633656 C59.0749653,70.7202709 61.6221325,70.641836 63.3249903,68.8822511 C63.9387204,68.2479202 64.6136933,67.450835 65.0614552,66.675918 C65.2224473,66.3972445 65.3195173,66.2149822 65.1239229,65.9425963 C64.8895924,65.6163621 64.5105756,65.3663863 64.2095669,65.1111707 C62.493006,63.6560549 61.4304424,61.7134822 61.1625814,59.4049338 C60.8908162,57.0626093 61.5200101,54.03928 63.7973259,53.0170472 C66.6084499,51.7551569 69.7042766,53.2035819 72.2028323,54.5537417 C73.264707,50.805958 75.4450295,47.4314855 78.8633764,45.7123675 C82.6451998,43.8105035 86.9847925,43.5879355 90.871188,41.9561196 C91.8839153,41.5308947 92.9153983,41.0481938 93.6610301,40.1817828 C93.9726032,39.8196765 94.3381465,39.3499541 94.4625461,38.871042 C94.625988,38.2419509 94.220254,37.7145107 93.9068437,37.2240711 C92.2450186,34.623629 85.9429367,29.3699763 82.6634951,28.3699763 Z" id="hair" fill="#191847"></path>
  <!-- Hair -->
  <path d="M102.7757,25.1604378 C102.27871,23.413499 100.941932,21.9177553 99.1403997,21.4740102 C98.7035309,21.3663739 98.2523568,21.3228991 97.8028308,21.3410245 C97.6415842,21.3474604 97.5963613,21.3939561 97.5210118,21.2811974 C97.4651095,21.197597 97.463857,20.9933574 97.44085,20.8951122 C97.3692581,20.5896064 97.2797352,20.2879096 97.169249,19.9940277 C96.7923038,18.9916772 96.1588538,18.1045809 95.3952068,17.3573001 C93.9668625,15.9592762 92.0369134,14.9944243 90.0318126,14.8198684 C88.9343996,14.7243814 87.8449632,14.9026807 86.8074738,15.2596732 C86.2703367,15.444474 85.7494825,15.6745884 85.2422083,15.9290015 C85.0894658,16.0055749 84.5939258,16.3806273 84.4406558,16.3563287 C84.2713667,16.3295345 83.9311403,15.9088402 83.793494,15.8032397 C82.0920984,14.4978789 79.9910802,13.9846529 77.8718674,14.0003485 C75.4798671,14.0180142 73.1765325,14.1375371 71.1815838,15.5957165 C70.7592838,15.9044402 70.3570902,16.2424535 69.974146,16.5983297 C69.7724889,16.7856917 69.5771603,16.9800806 69.3908631,17.1825471 C69.2784651,17.3046969 69.1690337,17.4296049 69.0636894,17.5578621 C68.8849074,17.7755645 68.9135837,17.8470813 68.6633416,17.6951821 C67.7032454,17.1118841 66.5906702,16.8390829 65.4700524,16.976797 C64.80463,17.0586242 64.1572045,17.2583982 63.5424765,17.5213485 C63.3331724,17.6108594 62.8487074,17.9679176 62.6256255,17.9713982 C62.4043234,17.9748132 61.9266485,17.6438267 61.6986882,17.5597009 C60.4674524,17.1051856 59.1403652,16.9931493 57.8462393,17.2031681 C56.5113072,17.4198854 55.1999755,17.9524847 54.068942,18.6884699 C53.524949,19.0425073 53.0503065,19.4347656 52.6690763,19.9611918 C52.5044676,20.1884823 52.3556804,20.4289072 52.1691195,20.6396484 C52.0598858,20.7630459 51.8435939,20.8896614 51.7849887,21.0458292 C51.8200595,20.9523124 50.3250675,20.3759756 50.1839932,20.3391337 C49.43241,20.1428403 48.6671149,20.1826375 47.9311554,20.4248355 C46.5472429,20.8802703 45.3570768,21.9016 44.3789178,22.9487388 C43.8765219,23.4865919 43.4368843,24.0811198 43.0636966,24.7145254 C42.8848487,25.0179297 42.7212948,25.3300027 42.5716506,25.6487085 C42.4991357,25.8031032 42.4510782,25.9962443 42.3555564,26.1353375 C42.232413,26.3145561 42.1496802,26.3179711 41.9266642,26.3961207 C40.7940485,26.7929104 39.7615692,27.4645372 38.9753108,28.3720574 C38.1800209,29.2902166 37.663979,30.42089 37.4476212,31.6115877 C37.4348981,31.6817253 37.427317,31.9723892 37.3862473,32.0103476 C37.3299494,32.0626224 37.1021869,32.0395059 37.0160261,32.0496194 C36.7176606,32.0846225 36.4214046,32.1367003 36.1291039,32.2059185 C35.5902528,32.3334534 35.0657729,32.5211438 34.5696396,32.7666254 C32.6356033,33.723531 31.2525478,35.5174909 30.5756549,37.5361144 C29.8654051,39.6545592 29.8779963,42.0815964 30.7268813,44.1605068 C30.8640002,44.4962873 31.0271586,44.8222171 31.2187955,45.1305467 C31.3364672,45.3198132 31.3744386,45.3202729 31.2980344,45.5188648 C31.2128624,45.7397851 31.0572852,45.9544667 30.9561599,46.1703303 C30.6262175,46.874793 30.3955544,47.6219424 30.2498656,48.3850501 C30.0108303,49.6368226 29.8923675,50.9522969 30.1281725,52.2135918 C30.2376699,52.799254 30.4284498,53.3717818 30.7194979,53.8934139 C30.8678896,54.1593852 31.0415297,54.411631 31.2375834,54.6449634 C31.3393678,54.7661281 31.4474808,54.881842 31.5605381,54.9926962 C31.6252081,55.0560039 31.7099845,55.111431 31.7649639,55.1821597 C31.8991823,55.3546142 31.9273971,55.2128285 31.8581785,55.4660594 C31.7614041,55.8200967 31.5420138,56.1694057 31.4076636,56.5139206 C31.2692262,56.868943 31.1441052,57.2288251 31.0296636,57.5922535 C30.7978799,58.3281731 30.6018921,59.077424 30.479342,59.8395467 C30.2439984,61.3027828 30.2853319,62.8618999 30.9774529,64.204825 C31.2733793,64.7792573 31.6979207,65.2831579 32.2128419,65.6751536 C32.4648638,65.8669157 32.7378492,66.0322119 33.0242168,66.1679557 C33.171356,66.2378307 33.3592353,66.2677771 33.4263445,66.4100881 C33.4985956,66.5631037 33.3913396,66.8669677 33.3668823,67.038043 C33.1540843,68.5263001 33.0473557,70.0888978 33.489762,71.5473398 C33.8972294,72.890659 34.7943696,74.0766939 35.9591555,74.8619331 C38.2187834,76.3851933 41.2646697,76.2992944 43.6389369,75.0798325 C44.257818,74.7619147 44.8368159,74.3672265 45.3533193,73.9016782 C46.6685404,75.6721932 49.3749915,75.6161751 51.2972276,75.1116834 C53.6920627,74.4832031 55.6137056,72.8179602 56.7208751,70.6300344 C58.2347869,72.4729856 61.411991,71.8750427 62.4618079,69.8757268 C62.718774,69.3864053 62.871187,68.8471075 62.9462069,68.3013738 C62.9856945,68.0143875 62.9605121,67.7249057 62.9901773,67.4402179 C63.0280168,67.0774462 63.2703482,66.7249193 63.4096426,66.3739686 C63.6809139,65.6909806 63.8493461,64.9854671 63.8565976,64.2487595 C63.8603552,63.8641191 63.8116384,63.4892637 63.7750514,63.1077099 C63.742156,62.7642457 63.8374141,62.4442264 63.8915365,62.105228 C63.277336,62.2063627 62.5290489,62.0407382 61.9503806,61.8626359 C61.3825236,61.6878829 60.8506603,61.2275884 60.4498511,60.8072225 C59.5192222,59.831075 58.950706,58.5514576 58.5618947,57.2778821 C57.7083952,54.4826224 58.0582462,51.1289544 60.8697779,49.5948583 C62.1795274,48.8802164 66.1033718,48.8825605 67.6633416,49.2357609 C69.3035816,49.6071356 71.1630595,53.2263842 71.25456,53.5665648 C71.3111875,53.7771089 71.282709,54.0376951 71.4761258,54.1779703 C71.9011945,54.4864314 72.6022151,53.9511395 72.9157428,53.6869414 C73.4567694,53.2309812 73.8426801,52.624304 74.1769075,52.0093522 C74.9051541,50.669645 75.4922605,49.2329403 75.9069794,47.7662893 C76.2267038,46.6355502 76.4311297,45.4695452 76.8490129,44.367636 C77.2648524,43.2711776 77.9203865,42.2911555 78.9396153,41.6700305 C80.048367,40.9943321 81.3192882,40.638456 82.5364825,40.2138213 C83.7429973,39.7929956 84.9286806,39.2786532 85.8639241,38.385712 C86.0695366,38.189353 86.269282,37.9807133 86.4348135,37.7495481 C86.5654721,37.5670459 86.6946144,37.2176712 86.8937005,37.1019573 C87.203207,36.9219506 87.6549084,37.39006 87.9225541,37.560019 C89.2429831,38.3986494 90.3446151,39.5682663 91.2331195,40.8459792 C92.1166797,42.1167309 92.841683,43.3394764 93.430833,44.7584496 C93.8678337,45.8108422 94.1405685,47.158627 94.9091597,48.0210964 C95.2522867,48.4061965 97.8028308,48.6391716 98.6289725,48.3029602 C99.4551141,47.9667489 100.380997,47.0937432 100.658267,46.5466304 C100.942129,45.9866459 101.009964,45.371497 100.888666,44.7584496 C100.817338,44.3977794 100.671649,44.0608825 100.591949,43.7066481 C100.52484,43.4090887 100.463927,43.1278158 100.319095,42.8552117 C100.044594,42.3386363 99.5756205,41.9673273 99.0100708,41.8120789 C99.5986275,41.2694318 100.086323,40.6202648 100.42378,39.8945901 C100.774422,39.1406764 101.071601,38.2238307 101.155916,37.3963645 C101.224476,36.7242781 101.11867,36.0279587 100.750756,35.4503742 C100.36478,34.844485 99.6810307,34.4492057 99.0894416,34.0712638 C99.9931082,33.3642399 100.766512,32.5043974 101.402335,31.5524173 C102.638845,29.7011258 103.403678,27.3675397 102.7757,25.1604378 Z" id="hair" fill="#191847"></path>
  <!-- Hair -->
  <g id="Hijab" transform="translate(36.000000, 28.000000)">
    <path d="M50.7350002,5.01147183 C50.1852708,4.68336774 49.0351409,3.99129844 48.4524743,3.74047035 C48.3145899,3.68011316 47.3491609,2.99135428 47.3231986,3.00008224 C46.5922497,3.24668063 44.475629,4.157139 44.2939574,4.94386372 C44.2657992,5.00348239 44.2381578,5.05940846 44.2112267,5.10828502 C43.9113039,5.65351385 43.6361163,6.21230459 43.373587,6.77787628 C42.7975078,8.01939475 42.3002198,9.31697358 41.8252774,10.6043474 C40.9001924,13.1115541 40.0965233,15.677171 39.3576307,18.2486288 C38.6053695,20.8663449 37.9669033,23.5146088 37.2521648,26.1431341 C36.2236827,29.9254283 34.9073547,33.6149377 33.8859767,37.3956877 C33.2337544,39.8097738 32.8709924,42.2521922 33.0422662,44.7368405 C33.0439454,44.7667169 33.0449141,44.7961906 33.0476266,44.826537 C33.0486599,44.8389576 33.0502099,44.8512438 33.0513078,44.8636644 C33.0804347,45.2456133 33.1219615,45.6285021 33.177309,46.0125322 C33.2257461,46.3409049 33.2743124,46.670486 33.3261079,47 C34.2590719,45.1396022 34.9713564,43.0896733 35.7272342,41.1440101 C35.8011816,40.9535392 35.8717061,40.7616583 35.940616,40.5691733 C36.1843517,40.1746025 36.4328666,39.7828514 36.6841585,39.3925774 C38.2688928,36.9315618 39.8598917,34.4796098 41.3795265,31.9740815 C44.1128024,27.4677025 46.8205682,22.8660544 50.061078,18.727928 C51.0179377,17.5059467 51.9970785,16.302697 52.9419258,15.0707121 C53.4795781,14.3696557 54.0032806,13.6568501 54.5099977,12.9313553 C54.872243,12.4125789 56.4471311,10.6043474 55.8768295,9.51791803 C55.585039,8.96205474 52.1610544,5.8627163 50.7350002,5.01147183 Z" id="Front" fill="#2C2C2C"></path>
    <path d="M48.6260171,3.83116599 C49.1606177,4.01081921 48.9005286,2.8983607 48.3827244,2.5068843 C45.9838484,0.693257683 36.8126531,0.035129961 28.8316831,1.69188377 C23.4851811,2.80175357 17.2670643,5.56416284 12.9966544,9.11545816 C9.14699464,12.3169592 6.49948445,17.4491331 5.13642247,22.407675 C3.70525344,27.6142408 3.48849539,33.0422873 4.28584125,38.381368 C4.46101123,39.5541291 4.83740954,40.6717368 5.04712657,41.8196221 C5.28329677,43.1122936 5.40444175,44.3568809 5.8254551,45.6145396 C6.08327479,46.3844871 6.52139715,47.1392958 6.74137959,47.9136449 C6.99248728,48.7972339 6.8394274,49.6146653 6.65629515,50.5133931 C6.35787446,51.9781941 5.98785913,53.4399939 5.46202016,54.8389709 C4.67237336,56.9397371 3.71413697,58.9072548 3.11334736,61.0872499 C2.31396158,63.9879079 -1.02991389,73.427136 1.41378875,76 L47.9323913,76 C46.761016,72.8047679 43.2449088,69.0442856 42.533108,65.623838 C42.1138713,63.608903 41.9144197,59.2085647 41.8705285,59.0486397 C40.8222264,51.8223372 38.7753261,48.3714635 37.4933414,47.1190983 C36.2113566,45.8667332 34.5038477,45.4816245 34.4158679,44.3952949 C34.0522355,39.9023228 35.8388772,35.5973526 37.1489671,31.4041565 C38.710362,26.4065336 39.854626,21.2849322 41.464321,16.3042488 C42.1771089,14.098711 45.8502346,2.8983607 48.6260171,3.83116599 Z" id="Turban" fill="#8991DC"></path>
    <path d="M32.3160356,9 C30.5618427,14.565951 30.1845546,17.5370354 30.5618427,25.1421085 L29.7013199,25.1421085 C28.0937737,17.9652054 29.5245027,11.2089071 31.2344582,9 L32.3160356,9 Z M8.78209035,23.3643083 C12.0510625,31.2963757 13.5415304,35.9803784 22.6701438,42.3991504 L21.9652448,42.892726 C12.9031248,37.7568562 10.2641419,31.6306096 8.09450288,23.6947526 L8.78209035,23.3643083 Z M22.2134556,15.2923054 C23.6982144,26.5510679 24.1316878,32.9820818 31.8664459,45.2976376 L31.0435239,45.5492301 C23.0831253,34.8261446 21.8212801,26.0740972 21.4451908,15.3541394 L22.2134556,15.2923054 Z M13.6694535,48.7363176 L14.373523,47.8804331 C23.9808594,50.889665 22.9106953,57.1023672 35.0112076,63.394114 L34,64.0068145 C23.4044272,59.6340646 20.9275677,50.2553327 13.6694535,48.7363176 Z" id="Shade" fill-opacity="0.2" fill="#000000"></path>
  </g>
  <!-- Hair -->
  <mask id="mask-2" fill="white">
    <use xlink:href="#path-1"></use>
  </mask>
  <use id="Hijab" fill="#89C5CC" xlink:href="#path-1"></use>
  <path d="M68.3160356,37 C66.5618427,42.565951 66.1845546,45.5370354 66.5618427,53.1421085 L65.7013199,53.1421085 C64.0937737,45.9652054 65.5245027,39.2089071 67.2344582,37 L68.3160356,37 Z M44.7820904,51.3643083 C48.0510625,59.2963757 49.5415304,63.9803784 58.6701438,70.3991504 L57.9652448,70.892726 C48.9031248,65.7568562 46.2641419,59.6306096 44.0945029,51.6947526 L44.7820904,51.3643083 Z M58.2134556,43.2923054 C59.6982144,54.5510679 60.1316878,60.9820818 67.8664459,73.2976376 L67.0435239,73.5492301 C59.0831253,62.8261446 57.8212801,54.0740972 57.4451908,43.3541394 L58.2134556,43.2923054 Z M49.6694535,76.7363176 L50.373523,75.8804331 C59.9808594,78.889665 58.9106953,85.1023672 71.0112076,91.394114 L70,92.0068145 C59.4044272,87.6340646 56.9275677,78.2553327 49.6694535,76.7363176 Z" id="Shade" fill-opacity="0.2" fill="#000000" mask="url(#mask-2)"></path>
  <!-- Hair -->
  <path d="M70.5687217,63.9853286 C67.5926236,69.6979779 63.4765087,74 59.3643383,74 C51.5536227,74 46,63.5572795 46,52.3295687 C46,51.9350856 46.0078163,51.5432268 46.0232386,51.1542949 C37.7608945,56.8241057 31.3932077,68 20.4607455,68 C5.58722916,68 -0.31966425,38 20.4607455,38 C34.593003,38 41.5445762,40.0604811 47.5354741,43.1074469 C48.7170741,39.7763359 50.5188193,36.9756887 52.7219959,35.0199012 C53.2520171,34.4232542 54.0645989,33.8524026 55.1129199,33.3231942 C55.7538221,32.972543 56.4170423,32.6869516 57.098675,32.4720339 C60.7117049,31.1442871 65.9449543,30.2077896 71.790603,30.003655 C72.8821722,29.9655366 73.9542211,29.9543821 75.0000488,29.9684338 C75.0170696,24.4601029 79.4876784,20 85,20 C90.5228475,20 95,24.4771525 95,30 C95,35.3410915 90.8126832,39.7041827 85.5417481,39.9855753 C82.5265081,40.9159529 78.6524637,41.5990548 74.3561881,41.8871153 C74.7733127,43.4557543 75,45.2377873 75,47.2515622 C75,49.0297049 74.8037398,50.9155223 74.4423579,52.830311 C73.5105469,51.7227516 72.2646032,51 71,51 C67.4624339,51 65,53.9101491 65,57 C65,60.9215044 67.2638886,63.7584261 70.5687217,63.9853286 Z" id="hair" fill="#191847"></path>
  <!-- Hair -->
  <path d="M95.4066181,38.9017011 C96.181796,38.1335173 96.604637,37.0370644 96.970412,35.9959366 C97.3502694,34.9144095 97.7193579,33.8217377 97.9715531,32.6960301 C98.4754831,30.446804 98.4802693,27.8601542 96.8757008,26.1136308 C95.5888613,24.7130885 93.6580039,24.0849092 91.8759783,23.9483875 C90.6887283,23.8573398 89.4693557,24.0236137 88.3312561,24.397755 C87.2020846,24.7689112 86.2287403,25.5086363 85.1340846,25.9677555 C85.0922975,23.5438969 84.6770959,21.0076965 83.4474146,18.9380781 C82.2641224,16.9467707 80.3775371,15.8293221 78.2290003,15.5336907 C76.0237656,15.230298 73.8461434,15.7463343 71.8719342,16.8139306 C71.3776685,17.0813024 70.888005,17.3614108 70.4194191,17.6784359 C70.027044,17.943917 69.6191137,18.2636287 69.1587196,18.3715924 C68.6454933,18.4920937 68.3910891,18.1956663 68.0575289,17.8212265 C67.6664423,17.3822075 67.2258372,16.9955285 66.7595523,16.6527315 C64.6978111,15.1372602 61.9926962,14.5141557 59.6041137,15.4225429 C58.5035673,15.8410637 57.4333948,16.5518327 56.6867499,17.531267 C56.0211941,18.4043297 55.5464414,19.7892496 54.627862,20.3975277 C54.2380641,20.6557449 53.9627664,20.3136445 53.6078524,20.0608006 C53.074745,19.6808879 52.5663049,19.2616705 52.0267546,18.8921065 C51.2688806,18.3728859 50.448326,17.9845153 49.5696008,17.7812252 C48.2832216,17.4836038 46.505522,17.5533573 46.1377221,19.2381872 C45.9996591,19.8710433 46.1055074,20.5478808 46.1501478,21.1855131 C46.2113557,22.0610635 46.2752329,22.9363153 46.3512596,23.8105721 C46.40897,24.4743744 46.4819593,25.1154894 46.6072285,25.767351 C46.674051,26.1148248 46.8831704,26.7626067 46.7341544,27.110578 C46.5479534,27.5455173 45.6885571,27.2982457 45.3214015,27.3133706 C44.5962024,27.3433218 43.8679659,27.47049 43.1974398,27.7803507 C42.6777706,28.0205574 42.1314092,28.3738025 41.9120731,28.9694434 C41.7772315,29.3353257 41.8127597,29.7111587 41.8764528,30.0875886 C41.9528477,30.5393443 41.8654998,30.778954 41.8084337,31.2347894 C40.8344451,30.7551721 37.4592643,29.6895659 37.0345824,31.4350943 C36.8932059,32.0163069 37.2151688,32.6730443 37.460829,33.1632092 C37.8916777,34.0229382 38.4565395,34.8087345 39.0340112,35.5581116 C40.2385651,37.1214452 41.6766296,38.4698465 43.2238559,39.6230176 C41.4110883,40.428914 40.9379003,42.8060049 42.5074008,44.2222691 C43.2003852,44.8475627 44.1321265,44.9867711 45.0062496,44.9467698 C45.3261876,44.9321425 45.7874102,44.8091535 46.0391451,44.8648767 C46.174631,44.8948279 46.3196892,45.0096574 46.5073629,45.0224936 C47.741002,45.1069739 49.1335978,44.8097505 50.3395323,44.5360104 C52.4883453,44.0482337 54.522658,43.0301912 56.1839244,41.4796939 C56.6100789,41.0819697 56.9621396,40.8530072 57.5357455,40.858878 C58.038387,40.8639528 58.5315481,41.0017682 59.0337294,41.0145049 C60.3624479,41.0484363 61.5604668,40.3988633 62.7942901,39.9665112 C62.8698566,41.6333306 63.3445173,43.4691107 64.0263646,44.9686611 C64.5823904,46.1914862 65.7435005,46.3692033 66.8844533,46.4764704 C70.5329989,46.819765 74.1944304,46.4366682 77.8475782,46.441743 C74.3112318,47.241072 70.6569795,47.5705353 67.1520195,48.5111623 C65.5677002,48.9362505 66.7775005,50.0040458 67.4549298,50.7442685 C68.570387,51.9632129 69.3997776,53.4735099 69.9750402,55.0646055 C71.70497,52.8096081 74.7626979,51.3237895 77.4716786,52.016548 C80.464885,52.781846 82.5725552,56.8296371 80.6585414,59.7396803 C79.5473181,61.428988 77.540618,62.0811481 75.8708838,62.8069425 C77.1734624,64.1612146 77.4885222,66.161378 78.2725362,67.846208 C78.6592047,68.6770803 79.2019765,69.6165133 80.0667112,69.9060748 C80.3866493,70.0132424 80.7618126,70.0223969 81.0141918,70.2832012 C81.3268585,70.6060971 81.4013205,70.9671037 81.8005988,71.244625 C83.3938461,72.3523221 85.8825703,72.2669462 87.294771,70.8214274 C88.571854,69.5141219 88.2395823,67.4453991 87.1729994,66.1199836 C88.8708064,65.4122993 91.9639705,64.502121 91.2892105,61.8570614 C94.96813,61.612775 103.90044,55.6462162 98.9627536,51.2862759 C101.672563,49.7547841 104.162115,46.011978 102.421509,42.7126686 C101.081193,40.1720899 97.9640977,39.0364317 95.4066181,38.9017011" id="hair" fill="#191847" transform="translate(70.000000, 43.500000) scale(-1, 1) translate(-70.000000, -43.500000) "></path>
  <!-- Hair -->
  <path d="M81.5586899,41.7004095 C78.3018196,43.5222215 75.9840093,46.9359598 73.1939275,51.4137701 C72.5143905,51.14668 71.7743247,51 71,51 C67.6862915,51 65,53.6862915 65,57 C65,58.6822183 65.6922919,60.2027431 66.807515,61.292214 C65.4191964,63.2518162 63.8632894,65.2988831 62.0803863,67.4111902 C55.4270381,63.419452 50.4784394,51.7854049 56.8311103,40.554248 C62.2968954,18.0574265 93.2683534,32.0209586 99.2270045,28.2267775 C100.529452,36.3904854 96.3284471,42.9730591 81.5586899,41.7004095 Z" id="Hair" fill="#191847"></path>
  <!-- Hair -->
  <path d="M60.4181384,70.3075201 C57.4059021,56.9064588 48.8245327,47.7714043 50.1351137,41.781703 C51.0088343,37.7885688 53.3375617,35.3053788 57.1212959,34.3321331 C59.0782074,26.4155009 65.3896485,23.0482486 76.0556193,24.2303763 C92.0545754,26.0035679 101.819448,32.6477587 97.6024819,47.2678779 C93.7260987,47.2678779 89.0464758,45.8659867 82.57553,48.2678779 C80.5223249,49.0299883 79.0538125,51.3933595 78.1699927,55.3579915 L75.2457978,55.3579915 C72.4077436,50.6530572 69.6094038,48.9241222 66.8507787,50.1711866 C64.0921535,51.418251 63.4650732,54.4473753 64.9695377,59.2585597 L63.529076,70.3075201 L60.4181384,70.3075201 Z" id="Hair" fill="#191847"></path>
  <!-- Hair -->
  <path d="M75.1353054,48.388929 C76.0539893,61.1861055 78.4841513,67.5846937 82.4257914,67.5846937 C88.3385979,67.5846937 93.355194,63.8310443 95.9495915,63.8310443 C97.8408192,63.8310443 97.4185661,66.1977405 96.1649615,67.9524776 C95.1306973,69.4001921 90.0939174,70.7956158 90.0939174,73.0400595 C90.0939174,75.2845031 94.0733913,73.5481008 94.0733913,74.8792364 C94.0733913,77.0810973 94.7727779,81.2209894 90.9512241,81.2209894 C87.0836843,81.2209894 75.9947625,79.8115837 74.0944216,74.0714721 C72.8679972,70.366972 72.0750257,62.6905548 71.7155071,51.0422204 C71.4808897,51.0143412 71.2421196,51 71,51 C67.6862915,51 65,53.6862915 65,57 C65,58.6822183 65.6922919,60.2027431 66.807515,61.292214 C65.4191964,63.2518162 63.8632894,65.2988831 62.0803863,67.4111902 C55.3824054,63.3926741 50.4121226,51.6289713 56.9604861,40.3282783 C58.7704744,34.7922446 62.8680346,31.8352408 67.7073518,30.4622091 C71.6274481,28.8224203 75.6968791,28.6375327 79.1320584,29.6205713 C85.8659611,30.1981637 91.8790132,32.2515132 93.5831606,33.4709469 C93.5831606,39.8461712 92.3478701,41.7376815 81.7968056,41.5709519 C79.204238,42.9401362 77.2112029,45.2978697 75.1353054,48.388929 Z" id="Hair" fill="#191847"></path>
  <!-- Hair -->
  <path d="M66.9985085,30.7865552 C79.0550637,26.609742 94.700908,31.4906831 92.6071441,41.2806601 C91.262667,47.5671373 83.9819788,50.7071224 76.8190787,54.0674377 C75.7647673,52.2369093 73.7539364,51 71.4466684,51 C68.0464589,51 65.2900445,53.6862915 65.2900445,57 C65.2900445,58.1936082 65.6476791,59.3058114 66.264215,60.240388 C63.8546189,62.336481 62.1544254,64.859497 61.7432388,68.1317726 C57.859479,68.1317726 51.5822399,56.7286072 53.6546048,45.9097779 C53.1112722,45.9693991 52.5592097,46 52,46 C43.7157288,46 37,39.2842712 37,31 C37,22.7157288 43.7157288,16 52,16 C60.2130054,16 66.8843391,22.6006809 66.9985123,30.7865539 Z" id="Hair" fill="#191847"></path>
  <!-- Hair -->
  <path d="M94.4090961,44.9836328 C94.1713645,43.583583 93.5903632,42.028843 93.1215639,40.7042644 C92.5171614,38.996708 91.602499,37.4571303 90.5959364,36.0061417 C88.7009022,33.2743581 86.427574,30.8074902 83.917599,28.760058 C79.3328188,25.0202318 73.4966155,22.8630853 67.7574266,23.5636213 C64.8597041,23.9172965 62.046753,25.0226169 59.6525443,26.8623756 C57.4894034,28.5246153 55.4087091,30.9715506 52.6076911,31.147366 C49.5599529,31.3385142 46.7662186,28.6484698 44.321953,26.9870819 C41.5660327,25.1141023 38.6342158,23.7493178 35.4132155,23.2188049 C30.0172962,22.3303577 24.9482191,24.1534208 21.2294392,28.5804946 C17.2721527,33.2915649 14.3955069,40.2003282 16.9942826,46.442458 C17.4773396,47.6028059 18.0987894,48.5810349 18.9906704,49.3917962 C19.8086285,50.1352639 21.0578819,50.926263 21.3895284,52.1142098 C21.7417865,53.3769463 20.6895063,55.005965 20.2814572,56.1453581 C19.6968915,57.7777841 19.2169339,59.4913033 19.3875614,61.2656423 C19.6679112,64.1795448 21.4990957,66.961245 23.4327187,68.8764749 C25.4004362,70.8254368 27.8222304,71.9430234 30.408918,72.4582035 C32.1361143,72.802168 33.9012795,72.9919533 35.6566813,72.8628175 C36.5281056,72.7987608 37.2970916,72.5566738 38.1413953,72.3641627 C38.9624528,72.1769329 39.4213338,72.3949985 40.1179464,72.8452701 C43.3539792,74.9373376 46.8334778,75.746736 50.5700799,75.4356517 C53.723666,75.1729507 57.3584495,74.4086987 59.9310344,72.2479746 C62.7879984,69.84823 62.7311226,66.5390835 62.0588411,63.0035235 C62.7711061,63.3565173 64.7416132,63.575094 63.5641132,62.1680594 C63.0976384,61.6107994 62.2162957,61.3840451 61.6177822,61.0562652 C60.9208597,60.6746502 60.2132439,60.181447 59.6720712,59.5589377 C57.4869238,57.0453901 59.6939227,51.9300465 62.4403895,51.0870864 C66.5208811,49.8347421 67.4344587,55.6054753 70.3473686,57.0982029 C72.0221834,57.9564958 73.7741757,56.7833706 75.0290082,55.5855427 C76.709867,53.980886 77.8554422,51.8550865 78.8444926,49.6918069 C79.6591961,47.9103126 80.4173338,46.1037748 81.2476898,44.3311394 C81.6354372,43.5033417 82.9778306,41.1632245 82.3036894,40.2272457 C85.2263628,39.6444311 88.4816125,40.8589547 90.9987164,42.4516859 C92.0390635,43.110142 92.8322255,43.8360622 93.387191,44.9984544 C93.5060568,45.2475263 93.7648651,45.9879274 94.0898476,46.0182522 C94.69487,46.0748129 94.4687615,45.335434 94.4090961,44.9836328" id="hair" fill="#191847"></path>
</svg>