<svg width="380" height="400"
  xmlns="http://www.w3.org/2000/svg"
  xmlns:xlink="http://www.w3.org/1999/xlink">
  <!--Hair-->
  <path d="m78 28-13-1-2-1-1-3a42 42 0 0 0-4-11c-3-5-7-8-12-11-5-2-12-3-18-2-6 0-12 3-18 5C4 5-2 6-8 5s-10-4-16-7c-5-3-11-5-17-5-6 1-11 3-16 6s-8 7-10 12c-3 5-3 11 1 16 5 7 15 9 24 9l14-3 17-8 8-4c3-1 5-1 8 1l8 4 9 2 18-3c5-1 10-2 15-1 2 0 5 1 6 3-13 2-17 18-14 29 2 6 13 13 18 10 3-2 1-5 0-6-2-4-3-8 1-10 3-2 7 2 7 2 1 0 9-4 14-11 6 1 7-3 5-6-1-3-9-7-14-7Z" fill="#191847"/>
  <!--Hair-->
  <path d="m70 54-3-1c-3 0-5 2-5 5s1 5 3 6l-3 3c-4 0-10-11-10-20 0-10 8-18 22-18 13 0 18 5 18 10-6 2-15 2-29 2v1l12 1 2 6c-3 0-5 2-7 5Z" fill="#191847"/>
  <!--Hair-->
  <path d="m83 28-10-1 1-8-3-8-2-4-3-1h-7l-4-2a10 10 0 0 0-8 3l-1 1v1h-1l-5 5-1 6c0 3 2 9 5 12 2 2 4 4 7 4l-4 8a36 36 0 0 0-1 17l4 7 3 1 4 1c2 1 5 1 6-1l2-2v-1l-1-1c-2-1-3-3-3-6 0-2 1-5 3-6 3-1 6 0 8 2 1-4 3-8 7-9l12-4 3-2v-3c-2-2-8-8-11-9Z" fill="#191847"/>
  <!--Hair-->
  <path d="m103 25-4-4h-2v-1l-2-3-5-2h-3l-2 1h-1c-2-2-4-2-6-2-3 0-5 0-7 2a13 13 0 0 0-2 2l-4-1-1 1h-2l-4-1-4 2-1 1-1 1-2-1h-2l-4 3a10 10 0 0 0-1 3h-1l-3 2-2 4a8 8 0 0 0-2 1c-2 1-4 3-4 5a10 10 0 0 0 0 7v1l-1 2v4a6 6 0 0 0 1 3h1l-1 2a17 17 0 0 0-1 3l1 4a4 4 0 0 0 2 2v6l3 3h8l1-1c2 2 4 2 6 1 3-1 5-2 6-4 1 1 4 1 5-1l1-2v-2l1-2v-2h-2l-2-1-1-4c-1-3-1-6 2-7l7-1 3 5h2l1-2 2-4 1-4 2-2 4-2 3-2 1-1 1 1 3 3 2 4 2 3h4l2-1v-3l-1-1-1-1 1-2 1-3v-2l-2-1 2-2c2-2 2-5 2-7Z" fill="#191847"/>
  <!--Hair-->
  <path d="M71 64c-3 6-8 10-12 10-7 0-13-10-13-22v-1c-8 6-15 17-26 17-14 0-20-30 0-30 15 0 22 2 28 5l5-8 2-2 2-1a50 50 0 0 1 18-2 10 10 0 1 1 11 10l-12 2 1 5-1 6-3-2c-4 0-6 3-6 6 0 4 2 7 6 7Z" fill="#191847"/>
  <!--Hair-->
  <path d="m45 39-2-3-1-3 1-7 5-2h4l3 2c0-2 0-5 2-7 1-2 3-3 5-3 2-1 4 0 6 1l2 1h2l1-1c2-2 5-2 7-2l3 3 2 2h1l2-1 2-1c2-1 3 0 4 1v2a155 155 0 0 1-1 5v1h2l2 1 1 1v2h5v2l-2 3-4 4c2 0 2 3 0 4l-2 1h-5c-2-1-5-2-6-4h-3l-4-1-1 5-3 1H62l11 3v2l-3 4c-2-2-5-4-7-3-3 1-6 5-4 8l5 3-2 5-2 2h-1l-1 1h-5c-2-1-1-4 0-5-2-1-5-1-4-4-4 0-13-6-8-11-3-1-5-5-3-8 1-3 4-4 7-4" fill="#191847"/>
  <!--Hair-->
  <path d="M82 42c-4 2-6 5-9 9a6 6 0 0 0-8 6l2 4-5 6c-7-4-12-15-5-26 5-23 36-9 42-13 2 8-3 15-17 14Z" fill="#191847"/>
  <!--Hair-->
  <path d="M60 70c-3-13-11-22-10-28 1-4 3-7 7-8 2-8 8-11 19-10 16 2 26 9 22 23-4 0-9-1-15 1-2 1-4 3-5 7h-3c-3-4-5-6-8-5s-4 4-2 9l-1 11h-4Z" fill="#191847"/>
  <!--Hair-->
  <path d="M75 48c1 13 3 20 7 20 6 0 11-4 14-4 2 0 1 2 0 4-1 1-6 3-6 5s4 1 4 2c0 2 1 6-3 6s-15-1-17-7c-1-4-2-11-2-23h-1a6 6 0 0 0-4 10l-5 6c-7-4-12-15-5-27 2-5 6-8 11-10h11c7 0 13 2 15 3 0 7-2 9-12 9-3 1-5 3-7 6Z" fill="#191847"/>
  <!--Hair-->
  <path d="M67 31c12-4 28 0 26 10-2 7-9 10-16 13-1-2-3-3-6-3s-6 3-6 6l1 3c-2 2-4 5-4 8-4 0-10-11-8-22h-2a15 15 0 1 1 15-15Z" fill="#191847"/>
  <!--Hair-->
  <path d="m94 45-1-4-2-5-7-7c-5-4-11-6-16-5-3 0-6 1-8 3l-7 4c-3 0-6-2-9-4-2-2-5-3-9-4-5-1-10 1-14 6-4 4-7 11-4 17 0 2 1 3 2 3l2 3c1 1 0 3-1 4l-1 5 4 8c2 2 5 3 7 3l6 1 2-1 2 1c3 2 7 3 11 2l9-3c3-2 3-5 2-9 1 0 3 1 2-1l-2-1-2-1c-3-3 0-8 2-9 5-1 5 5 8 6 2 1 4 0 5-1l4-6 2-6c1 0 2-3 1-4l9 2 2 3 1 1v-1" fill="#191847"/>
</svg>