<?xml version="1.0" encoding="UTF-8"?>
<svg width="380px" height="480px" viewBox="0 0 380 480" version="1.1"
  xmlns="http://www.w3.org/2000/svg"
  xmlns:xlink="http://www.w3.org/1999/xlink">
  <g id="humaaans" stroke="none" stroke-width="1" fill="none" fill-rule="evenodd">
    <g id="Human" transform="translate(43, 35)">
      <!-- HEAD -->
      <g id="Head" transform="translate(82, -7)">

        <g id="Head" transform="translate(54.000000, 31.000000)" fill="#B28B67">
          <path d="M8.26227388,34.4901268 C3.65436435,29.0813759 0.535634794,22.4528771 1.05677633,15.0254539 C2.55833022,-6.37502057 32.3485306,-1.66718886 38.1433414,9.13393292 C43.9381521,19.9350547 43.249578,47.3329958 35.7603014,49.2634576 C32.7735882,50.033323 26.4110012,48.1474609 19.935372,44.244306 L24,73 L0,73 L8.26227388,34.4901268 Z"></path>
        </g>
        <!-- Hair -->
        <path d="m78 28-13-1-2-1-1-3a42 42 0 0 0-4-11c-3-5-7-8-12-11-5-2-12-3-18-2-6 0-12 3-18 5C4 5-2 6-8 5s-10-4-16-7c-5-3-11-5-17-5-6 1-11 3-16 6s-8 7-10 12c-3 5-3 11 1 16 5 7 15 9 24 9l14-3 17-8 8-4c3-1 5-1 8 1l8 4 9 2 18-3c5-1 10-2 15-1 2 0 5 1 6 3-13 2-17 18-14 29 2 6 13 13 18 10 3-2 1-5 0-6-2-4-3-8 1-10 3-2 7 2 7 2 1 0 9-4 14-11 6 1 7-3 5-6-1-3-9-7-14-7Z" fill="#191847"/>
      </g>
      <!-- BOTTOM -->
      <g id="Bottom" transform="translate(0, 187)">
        <path fill="#191847" d="m128 0 36 127 27 94h19L182 0z"/>
        <path d="M118 0c-1 66-3 101-4 107s-14 44-40 114h20l55-114c3-9 15-44 33-107h-64Z" fill="#2F3676"/>
        <path d="m72 239 1-21h21c10 7 23 13 39 17v4H95l-13-2v2H72Zm116 0 1-21h21c10 7 23 13 39 17v4h-38l-13-2v2h-10Z" fill="#191847"/>
      </g>
      <!-- BODY -->
      <g id="Body" transform="translate(22, 82)">
        <path d="m192 65 39-5 22-9c2 0 5 1 1 4-5 4-9 8-8 10 0 2 4 1 5 4 1 2-6 3-20 1l-32 13-7-18ZM68 74l22 1-38 84c-2 6 3 15 5 20-7 3-6-9-15-5-8 4-14 11-23 5-1-1-2-3 1-5 7-5 18-14 19-17l29-83Z" fill="#997659"/>
        <path d="m128 5 17 1c4 38 27 62 79 54l7 49c-48 7-91-13-99-65-3-13-4-27-4-39Z" fill="#AFB9C5"/>
        <path d="m119 0 26 6c0 45 15 73 22 106H97l-2 35H42C54 84 79 35 118 0h1Z" fill="#C5CFD6"/>
        <path d="M108 48c-2 28-1 49 3 64H97c2-22 5-44 11-64Z" fill-opacity=".1"/>
      </g>
    </g>
  </g>
</svg>