<svg width="380" height="400"
  xmlns="http://www.w3.org/2000/svg"
  xmlns:xlink="http://www.w3.org/1999/xlink">
  <!-- Bottom -->
  <polygon id="Leg" fill="#997659" points="134 0 183.081639 124.226909 216.000898 229.25029 229 229.25029 178.673688 5.090379e-13"></polygon>
  <path d="M124.116628,0 C123.593979,43.6541888 115.971833,102.427468 114.754071,105.148648 C113.942229,106.962768 85.9161573,130.032465 30.6758546,174.357739 L39.6290713,183.938736 C104.807511,145.935376 138.9048,124.399339 141.920937,119.330628 C146.445143,111.72756 161.1744,41.763137 173,0 L124.116628,0 Z" id="Leg" fill="#B28B67"></path>
  <g id="Accessories/Shoe/Flat-Sneaker" transform="translate(51.500000, 189.000000) rotate(50.000000) translate(-51.500000, -189.000000) translate(21.000000, 169.000000)" fill="#E4E4E4">
    <path d="M2.67813181,25.4019242 C1.55937727,28.3884109 1,30.6229931 1,32.1056708 C1,33.908957 1.3004142,36.5404001 1.90124261,40 C3.99318117,40 22.7937852,40 58.3030548,40 C59.768738,35.1545073 58.9226607,32.5385816 55.7648228,32.1522232 C52.606985,31.7658647 49.9837155,31.4170139 47.8950143,31.1056708 L21.6799926,19.4188835 C21.1755635,19.1940064 20.584344,19.4206282 20.359467,19.9250573 C20.35562,19.9336867 20.3518954,19.9423702 20.3482945,19.9511052 L18.6632131,24.038695 C15.7398812,25.4026522 13.3643706,26.0846307 11.5366811,26.0846307 C10.0517269,26.0846307 8.00099246,25.4849054 5.38447792,24.2854549 L5.38448339,24.285443 C4.38038273,23.8251478 3.19325534,24.2659892 2.73296014,25.2700899 C2.71312074,25.3133681 2.69483298,25.3573409 2.67813181,25.4019242 Z" id="shoe"></path>
  </g>
  <g id="Accessories/Shoe/Flat-Sneaker" transform="translate(208.000000, 199.000000)" fill="#E4E4E4">
    <path d="M2.67813181,25.4019242 C1.55937727,28.3884109 1,30.6229931 1,32.1056708 C1,33.908957 1.3004142,36.5404001 1.90124261,40 C3.99318117,40 22.7937852,40 58.3030548,40 C59.768738,35.1545073 58.9226607,32.5385816 55.7648228,32.1522232 C52.606985,31.7658647 49.9837155,31.4170139 47.8950143,31.1056708 L21.6799926,19.4188835 C21.1755635,19.1940064 20.584344,19.4206282 20.359467,19.9250573 C20.35562,19.9336867 20.3518954,19.9423702 20.3482945,19.9511052 L18.6632131,24.038695 C15.7398812,25.4026522 13.3643706,26.0846307 11.5366811,26.0846307 C10.0517269,26.0846307 8.00099246,25.4849054 5.38447792,24.2854549 L5.38448339,24.285443 C4.38038273,23.8251478 3.19325534,24.2659892 2.73296014,25.2700899 C2.71312074,25.3133681 2.69483298,25.3573409 2.67813181,25.4019242 Z" id="shoe"></path>
  </g>
  <polygon id="Pant" fill="#69A1AC" points="167 218.432889 228.804464 211.725327 183 2.84217094e-14 127.644073 2.84217094e-14"></polygon>
  <path d="M43.4599581,158.900479 L84,206.885961 C126.699953,160.249961 151.594137,129.819963 158.682552,115.595966 C165.770967,101.37197 172.143091,62.839981 177.798925,0 L115.478146,0 C112.388642,55.2838742 110.306102,84.2121259 109.230525,86.7847551 C108.154948,89.3573843 86.2314253,113.395959 43.4599581,158.900479 Z" id="Pant" fill="#89C5CC"></path>
  <!-- Bottom -->
  <polygon id="Leg" fill="#997659" points="130 0 204.306413 124.226909 260.014844 229.25029 272.013946 229.25029 178.673688 5.090379e-13"></polygon>
  <g id="Accessories/Shoe/Flat-Sneaker" transform="translate(250.000000, 199.000000)" fill="#E4E4E4">
    <path d="M2.67813181,25.4019242 C1.55937727,28.3884109 1,30.6229931 1,32.1056708 C1,33.908957 1.3004142,36.5404001 1.90124261,40 C3.99318117,40 22.7937852,40 58.3030548,40 C59.768738,35.1545073 58.9226607,32.5385816 55.7648228,32.1522232 C52.606985,31.7658647 49.9837155,31.4170139 47.8950143,31.1056708 L21.6799926,19.4188835 C21.1755635,19.1940064 20.584344,19.4206282 20.359467,19.9250573 C20.35562,19.9336867 20.3518954,19.9423702 20.3482945,19.9511052 L18.6632131,24.038695 C15.7398812,25.4026522 13.3643706,26.0846307 11.5366811,26.0846307 C10.0517269,26.0846307 8.00099246,25.4849054 5.38447792,24.2854549 L5.38448339,24.285443 C4.38038273,23.8251478 3.19325534,24.2659892 2.73296014,25.2700899 C2.71312074,25.3133681 2.69483298,25.3573409 2.67813181,25.4019242 Z" id="shoe"></path>
  </g>
  <path d="M244.543057,212.432889 L267.683113,205.432889 C257.544824,175.124875 245.118911,141.772016 230.405374,105.374313 C215.691837,68.97661 199.890046,33.851839 183,2.84217094e-14 L117.644073,2.84217094e-14 C136.422172,42.821022 156.329475,81.7294172 177.365982,116.725186 C198.402489,151.720954 220.794847,183.623522 244.543057,212.432889 Z" id="Pant" fill="#DB2721"></path>
  <path d="M125.116628,2.84217094e-14 C118.103498,43.6541888 104.577091,99.4274685 103.300563,101.148648 C102.449544,102.296102 71.8126514,112.562199 11.3898843,131.94694 L13.9818352,142.527938 C86.0358431,132.131776 124.00216,124.066006 127.880787,118.330628 C133.698727,109.72756 162.748486,41.763137 174,2.84217094e-14 L125.116628,2.84217094e-14 Z" id="Leg" fill="#B28B67"></path>
  <path d="M32.6295078,122.800477 L37.1949469,139.841939 C91.0871466,144.568621 124.108088,141.153296 136.25777,129.595966 C148.407453,118.038636 162.254504,74.839981 177.798925,-1.13686838e-13 L115.478146,-1.13686838e-13 C105.629567,61.2838742 100.12357,93.2121259 98.9601559,95.7847551 C97.7967416,98.3573843 75.6865256,107.362625 32.6295078,122.800477 Z" id="Pant" fill="#FF4133"></path>
  <g id="Accessories/Shoe/Flat-Sneaker" transform="translate(24.500000, 154.000000) rotate(80.000000) translate(-24.500000, -154.000000) translate(-6.000000, 134.000000)" fill="#E4E4E4">
    <path d="M2.67813181,25.4019242 C1.55937727,28.3884109 1,30.6229931 1,32.1056708 C1,33.908957 1.3004142,36.5404001 1.90124261,40 C3.99318117,40 22.7937852,40 58.3030548,40 C59.768738,35.1545073 58.9226607,32.5385816 55.7648228,32.1522232 C52.606985,31.7658647 49.9837155,31.4170139 47.8950143,31.1056708 L21.6799926,19.4188835 C21.1755635,19.1940064 20.584344,19.4206282 20.359467,19.9250573 C20.35562,19.9336867 20.3518954,19.9423702 20.3482945,19.9511052 L18.6632131,24.038695 C15.7398812,25.4026522 13.3643706,26.0846307 11.5366811,26.0846307 C10.0517269,26.0846307 8.00099246,25.4849054 5.38447792,24.2854549 L5.38448339,24.285443 C4.38038273,23.8251478 3.19325534,24.2659892 2.73296014,25.2700899 C2.71312074,25.3133681 2.69483298,25.3573409 2.67813181,25.4019242 Z" id="shoe"></path>
  </g>
  <!-- Bottom -->
  <polygon id="Leg" fill="#997659" points="128 9.9475983e-14 165.630838 123.024171 183.860154 227.648304 198.153197 227.648304 178.890974 9.9475983e-14"></polygon>
  <path d="M114.537727,0 C117.093705,67.5468821 114.085665,102.388787 113.513606,108.525715 C112.941548,114.662643 105.108196,154.454812 86.5636874,229.708469 L101.793992,224.477699 C131.10186,155.458959 141.088936,119.5887 144.450326,110.525715 C147.811717,101.46273 156.739403,64.6208249 171.233385,0 L114.537727,0 Z" id="Leg" fill="#B28B67"></path>
  <g id="Accessories/Shoe/Flat-Sneaker" transform="translate(84.000000, 199.000000)" fill="#E4E4E4">
    <path d="M2.67813181,25.4019242 C1.55937727,28.3884109 1,30.6229931 1,32.1056708 C1,33.908957 1.3004142,36.5404001 1.90124261,40 C3.99318117,40 22.7937852,40 58.3030548,40 C59.768738,35.1545073 58.9226607,32.5385816 55.7648228,32.1522232 C52.606985,31.7658647 49.9837155,31.4170139 47.8950143,31.1056708 L21.6799926,19.4188835 C21.1755635,19.1940064 20.584344,19.4206282 20.359467,19.9250573 C20.35562,19.9336867 20.3518954,19.9423702 20.3482945,19.9511052 L18.6632131,24.038695 C15.7398812,25.4026522 13.3643706,26.0846307 11.5366811,26.0846307 C10.0517269,26.0846307 8.00099246,25.4849054 5.38447792,24.2854549 L5.38448339,24.285443 C4.38038273,23.8251478 3.19325534,24.2659892 2.73296014,25.2700899 C2.71312074,25.3133681 2.69483298,25.3573409 2.67813181,25.4019242 Z" id="shoe"></path>
  </g>
  <g id="Accessories/Shoe/Flat-Sneaker" transform="translate(178.000000, 199.000000)" fill="#E4E4E4">
    <path d="M2.67813181,25.4019242 C1.55937727,28.3884109 1,30.6229931 1,32.1056708 C1,33.908957 1.3004142,36.5404001 1.90124261,40 C3.99318117,40 22.7937852,40 58.3030548,40 C59.768738,35.1545073 58.9226607,32.5385816 55.7648228,32.1522232 C52.606985,31.7658647 49.9837155,31.4170139 47.8950143,31.1056708 L21.6799926,19.4188835 C21.1755635,19.1940064 20.584344,19.4206282 20.359467,19.9250573 C20.35562,19.9336867 20.3518954,19.9423702 20.3482945,19.9511052 L18.6632131,24.038695 C15.7398812,25.4026522 13.3643706,26.0846307 11.5366811,26.0846307 C10.0517269,26.0846307 8.00099246,25.4849054 5.38447792,24.2854549 L5.38448339,24.285443 C4.38038273,23.8251478 3.19325534,24.2659892 2.73296014,25.2700899 C2.71312074,25.3133681 2.69483298,25.3573409 2.67813181,25.4019242 Z" id="shoe"></path>
  </g>
  <polygon id="Bottom" fill="#69A1AC" points="123 0 139 62.6795201 187.870318 62.6795201 180.583554 0"></polygon>
  <path d="M114,-3.55271368e-15 C108.735439,15.7805461 107.735439,36.6737195 111,62.6795201 L160.870318,62.6795201 L174.583554,-3.55271368e-15 L114,-3.55271368e-15 Z" id="Bottom" fill="#89C5CC"></path>
  <!-- Bottom -->
  <polygon id="Leg" fill="#1F28CF" points="128 0 176.081639 127.226909 209.783329 221 229 221 182.673688 9.81437154e-14"></polygon>
  <path d="M116.116628,0 C115.593979,43.6541888 115.971833,102.427468 114.754071,105.148648 C113.942229,106.962768 88.6908725,127.632305 39,167.157257 L48.9049803,184 C107.899481,145.955797 138.9048,124.399339 141.920937,119.330628 C146.445143,111.72756 169.1744,41.763137 181,0 L116.116628,0 Z" id="Leg" fill="#2B44FF"></path>
  <g id="Accessories/Shoe/Flat-Pointy" transform="translate(56.500000, 189.000000) rotate(50.000000) translate(-56.500000, -189.000000) translate(26.000000, 169.000000)" fill="#191847">
    <path d="M0,40 L1,19 L22,19 C31.9576033,26 44.9576033,31.6666667 61,36 L61,40 L23,40 L10,38 L10,40 L0,40 Z" id="Shoe"></path>
  </g>
  <g id="Accessories/Shoe/Flat-Pointy" transform="translate(208.000000, 199.000000)" fill="#191847">
    <path d="M0,40 L1,19 L22,19 C31.9576033,26 44.9576033,31.6666667 61,36 L61,40 L23,40 L10,38 L10,40 L0,40 Z" id="Shoe"></path>
  </g>
  <!-- Bottom -->
  <polygon id="Leg" fill="#191847" points="128 9.9475983e-14 164.254962 127.226909 190.706957 221 210 221 181.890974 9.9475983e-14"></polygon>
  <path d="M118.304342,0 C117.465768,65.5742244 114.606247,101.340188 113.725779,107.297892 C112.845311,113.255595 99.5321718,151.156298 73.7863613,221 L93.7726468,221 C126.549033,153.996902 144.845651,116.096199 148.662499,107.297892 C152.479348,98.4995844 164.258515,62.7336205 182,0 L118.304342,0 Z" id="Leg" fill="#2F3676"></path>
  <g id="Accessories/Shoe/Flat-Pointy" transform="translate(72.000000, 199.000000)" fill="#191847">
    <path d="M0,40 L1,19 L22,19 C31.9576033,26 44.9576033,31.6666667 61,36 L61,40 L23,40 L10,38 L10,40 L0,40 Z" id="Shoe"></path>
  </g>
  <g id="Accessories/Shoe/Flat-Pointy" transform="translate(188.000000, 199.000000)" fill="#191847">
    <path d="M0,40 L1,19 L22,19 C31.9576033,26 44.9576033,31.6666667 61,36 L61,40 L23,40 L10,38 L10,40 L0,40 Z" id="Shoe"></path>
  </g>
  <!-- Bottom -->
  <path d="M97.4078252,98.0880741 C121.397173,104.797924 142.094458,108.152849 159.499678,108.152849 C176.904899,108.152849 193.071673,102.986324 208,92.6532736 C184.524241,85.7662231 165.190908,82.3226979 150,82.3226979 C134.809092,82.3226979 117.278368,87.5778233 97.4078252,98.0880741 Z" id="Skirt-Shadow" fill="#1F28CF"></path>
  <path d="M180.266835,117.824327 C180.035521,117.476585 179.840175,117.098311 179.685231,116.688552 C176.478637,108.208488 125.116885,16.7255336 120,0 L177.826087,0 C181.716527,12.7166594 199.227018,92.5197596 201.69132,108.441654 C209.466648,133.556719 225.475271,214.895245 227.518903,220.530129 C229.66877,226.457932 217.572184,232.63317 214.348729,225.345671 C209.219667,213.750031 196.998649,181.665102 191.557135,162.074268 C186.455728,143.707903 182.301821,127.184501 180.266835,117.824327 Z" id="Leg" fill="#997659"></path>
  <path d="M132.957062,128.993595 C109.475313,134.928474 23.5840287,145.657684 17.6897926,147.340533 C11.6264626,149.07166 6.31008232,136.573779 13.8046857,133.866526 C25.7298651,129.558829 58.589132,119.605712 78.5118243,115.544042 C94.5364316,112.27708 109.159082,109.611243 118.976345,108.050159 C118.144649,80.4734403 114.342756,14.2935455 116.834687,1.42108547e-14 L168,1.42108547e-14 C165.610405,13.7065491 145.410112,113.717714 141.6556,123.728549 C140.464101,127.302484 136.908919,128.8819 132.957062,128.993595 Z" id="Leg" fill="#B28B67"></path>
  <g id="Accessories/Shoe/Flat-Sneaker" transform="translate(24.500000, 157.000000) rotate(80.000000) translate(-24.500000, -157.000000) translate(-6.000000, 137.000000)" fill="#E4E4E4">
    <path d="M2.67813181,25.4019242 C1.55937727,28.3884109 1,30.6229931 1,32.1056708 C1,33.908957 1.3004142,36.5404001 1.90124261,40 C3.99318117,40 22.7937852,40 58.3030548,40 C59.768738,35.1545073 58.9226607,32.5385816 55.7648228,32.1522232 C52.606985,31.7658647 49.9837155,31.4170139 47.8950143,31.1056708 L21.6799926,19.4188835 C21.1755635,19.1940064 20.584344,19.4206282 20.359467,19.9250573 C20.35562,19.9336867 20.3518954,19.9423702 20.3482945,19.9511052 L18.6632131,24.038695 C15.7398812,25.4026522 13.3643706,26.0846307 11.5366811,26.0846307 C10.0517269,26.0846307 8.00099246,25.4849054 5.38447792,24.2854549 L5.38448339,24.285443 C4.38038273,23.8251478 3.19325534,24.2659892 2.73296014,25.2700899 C2.71312074,25.3133681 2.69483298,25.3573409 2.67813181,25.4019242 Z" id="shoe"></path>
  </g>
  <g id="Accessories/Shoe/Flat-Sneaker" transform="translate(208.000000, 199.000000)" fill="#E4E4E4">
    <path d="M2.67813181,25.4019242 C1.55937727,28.3884109 1,30.6229931 1,32.1056708 C1,33.908957 1.3004142,36.5404001 1.90124261,40 C3.99318117,40 22.7937852,40 58.3030548,40 C59.768738,35.1545073 58.9226607,32.5385816 55.7648228,32.1522232 C52.606985,31.7658647 49.9837155,31.4170139 47.8950143,31.1056708 L21.6799926,19.4188835 C21.1755635,19.1940064 20.584344,19.4206282 20.359467,19.9250573 C20.35562,19.9336867 20.3518954,19.9423702 20.3482945,19.9511052 L18.6632131,24.038695 C15.7398812,25.4026522 13.3643706,26.0846307 11.5366811,26.0846307 C10.0517269,26.0846307 8.00099246,25.4849054 5.38447792,24.2854549 L5.38448339,24.285443 C4.38038273,23.8251478 3.19325534,24.2659892 2.73296014,25.2700899 C2.71312074,25.3133681 2.69483298,25.3573409 2.67813181,25.4019242 Z" id="shoe"></path>
  </g>
  <path d="M117,3.55271368e-15 C139.546839,-6.45073907 160.880173,-6.45073907 181,3.55271368e-15 C188,31.9374682 205.00894,44.6134741 208,93.5789257 C174,110.472724 132,81.5304571 97,98.005311 C87,74.9611073 101,19.4645181 117,3.55271368e-15 Z" id="Skirt" fill="#2B44FF"></path>
  <!-- Bottom -->
  <path d="M207.469522,-9.65840194 C188.34471,5.93412613 195.620321,142.644251 194.343793,144.365431 C193.776447,145.1304 163.468239,151.639612 103.419169,163.893066 L106.01112,174.474064 C176.253239,170.987921 213.421261,166.637951 217.515185,161.424153 C223.376511,153.959489 230.620797,112.212202 239.248044,36.1822931 L207.469522,-9.65840194 Z" id="Leg" fill="#B28B67" transform="translate(171.333606, 82.407831) rotate(-55.000000) translate(-171.333606, -82.407831) "></path>
  <path d="M113.540088,152.75781 L118.105527,169.799273 C170.465638,175.811529 204.983252,168.36956 217.132934,156.81223 C225.232723,149.107343 232.495664,107.473517 238.921759,31.9107522 L204.926407,-16.6396419 C159.401042,17.7063231 186.537309,130.140454 185.373895,132.713083 C184.210481,135.285712 156.597106,137.319958 113.540088,152.75781 Z" id="Pant" fill="#2F3676" transform="translate(176.230924, 77.646617) rotate(-55.000000) translate(-176.230924, -77.646617) "></path>
  <g id="Accessories/Shoe/Flat-Sneaker" transform="translate(223.383915, 187.279121) rotate(20.000000) translate(-223.383915, -187.279121) translate(192.883915, 167.279121)" fill="#E4E4E4">
    <path d="M2.67813181,25.4019242 C1.55937727,28.3884109 1,30.6229931 1,32.1056708 C1,33.908957 1.3004142,36.5404001 1.90124261,40 C3.99318117,40 22.7937852,40 58.3030548,40 C59.768738,35.1545073 58.9226607,32.5385816 55.7648228,32.1522232 C52.606985,31.7658647 49.9837155,31.4170139 47.8950143,31.1056708 L21.6799926,19.4188835 C21.1755635,19.1940064 20.584344,19.4206282 20.359467,19.9250573 C20.35562,19.9336867 20.3518954,19.9423702 20.3482945,19.9511052 L18.6632131,24.038695 C15.7398812,25.4026522 13.3643706,26.0846307 11.5366811,26.0846307 C10.0517269,26.0846307 8.00099246,25.4849054 5.38447792,24.2854549 L5.38448339,24.285443 C4.38038273,23.8251478 3.19325534,24.2659892 2.73296014,25.2700899 C2.71312074,25.3133681 2.69483298,25.3573409 2.67813181,25.4019242 Z" id="shoe"></path>
  </g>
  <polygon id="Leg" fill="#997659" points="130 0 78.2540376 124.226909 27.3958106 229.25029 39.3949124 229.25029 170.673688 0"></polygon>
  <g id="Accessories/Shoe/Flat-Sneaker" transform="translate(24.000000, 199.000000)" fill="#E4E4E4">
    <path d="M2.67813181,25.4019242 C1.55937727,28.3884109 1,30.6229931 1,32.1056708 C1,33.908957 1.3004142,36.5404001 1.90124261,40 C3.99318117,40 22.7937852,40 58.3030548,40 C59.768738,35.1545073 58.9226607,32.5385816 55.7648228,32.1522232 C52.606985,31.7658647 49.9837155,31.4170139 47.8950143,31.1056708 L21.6799926,19.4188835 C21.1755635,19.1940064 20.584344,19.4206282 20.359467,19.9250573 C20.35562,19.9336867 20.3518954,19.9423702 20.3482945,19.9511052 L18.6632131,24.038695 C15.7398812,25.4026522 13.3643706,26.0846307 11.5366811,26.0846307 C10.0517269,26.0846307 8.00099246,25.4849054 5.38447792,24.2854549 L5.38448339,24.285443 C4.38038273,23.8251478 3.19325534,24.2659892 2.73296014,25.2700899 C2.71312074,25.3133681 2.69483298,25.3573409 2.67813181,25.4019242 Z" id="shoe"></path>
  </g>
  <path d="M31.9885488,207.432889 L58.6506859,212.432889 C79.2657755,182.124875 165.540767,57.851839 175,2.84217094e-14 L115.644073,2.84217094e-14 C84.0548806,41.821022 51.6389867,176.623522 31.9885488,207.432889 Z" id="Pant" fill="#5C63AB"></path>
  <!-- Bottom -->
  <polygon id="Leg" fill="#997659" points="128 9.9475983e-14 164.630838 126.226909 181.860154 221 199.153197 221 181.890974 9.9475983e-14"></polygon>
  <path d="M111.537727,0 C114.093705,65.5742244 113.085665,101.340188 112.513606,107.297892 C111.941548,113.255595 108.69393,153.156298 86.5636874,223 L104.549973,223 C133.85784,155.996902 144.088936,116.096199 147.450326,107.297892 C150.811717,98.4995844 160.739403,62.7336205 175.233385,0 L111.537727,0 Z" id="Leg" fill="#B28B67"></path>
  <path d="M127.213639,1.13686838e-13 C136.741891,43.4350253 153.221683,112.768359 176.653017,208 L201.946059,208 C203.814239,110.253828 195.86709,45.9204947 182.104613,1.13686838e-13 L127.213639,1.13686838e-13 Z" id="Pant" fill="#69A1AC"></path>
  <path d="M111.409919,0 C113.913164,65.5742244 107.425844,130.177256 87.3305078,209.020958 L114.316793,209.020958 C143.678541,143.017859 164.723052,78.7336205 179.105577,0 L111.409919,0 Z" id="Pant" fill="#89C5CC"></path>
  <g id="Accessories/Shoe/Flat-Simple" transform="translate(84.000000, 199.000000)" fill="#191847">
    <path d="M0,37 L0.99242267,21 C6.8029179,22.6994251 14.0806841,22.0327584 22.8257214,19 C32.2287535,25.660617 44.0659431,30.2086712 58.3372903,32.6441626 L58.3372863,32.6441862 C59.4261013,32.829999 60.1581292,33.8632891 59.9723163,34.9521041 C59.9602834,35.0226139 59.9444765,35.0924273 59.9249637,35.1612435 L58.5529375,40 L22.8257214,40 L1.98484534,40 L0,37 Z" id="Shoe"></path>
  </g>
  <g id="Accessories/Shoe/Flat-Simple" transform="translate(178.000000, 199.000000)" fill="#191847">
    <path d="M0,37 L0.99242267,21 C6.8029179,22.6994251 14.0806841,22.0327584 22.8257214,19 C32.2287535,25.660617 44.0659431,30.2086712 58.3372903,32.6441626 L58.3372863,32.6441862 C59.4261013,32.829999 60.1581292,33.8632891 59.9723163,34.9521041 C59.9602834,35.0226139 59.9444765,35.0924273 59.9249637,35.1612435 L58.5529375,40 L22.8257214,40 L1.98484534,40 L0,37 Z" id="Shoe"></path>
  </g>
</svg>