<?xml version="1.0" encoding="UTF-8"?>
<svg width="380px" height="480px" viewBox="0 0 380 480" version="1.1"
  xmlns="http://www.w3.org/2000/svg"
  xmlns:xlink="http://www.w3.org/1999/xlink">
  <g id="humaaans/standing-18" stroke="none" stroke-width="1" fill="none" fill-rule="evenodd">
    <g id="humaaan-2" transform="translate(28.000000, 9.000000)">
      <g id="Head/Front/Wavy" transform="translate(128.159246, 53.0) rotate(-15.000000) translate(-128.159246, -70.924000) translate(57.306980, 16.688000)">
        <g id="Head" stroke-width="1" transform="translate(56.316359, 32.329762)" fill="#915B3C">
          <path d="M8.61668863,35.9695996 C3.8111203,30.3288374 0.558611141,23.4160055 1.10210733,15.6699789 C2.66807119,-6.64848056 33.7361385,-1.73870383 39.7795208,9.52573796 C45.8229031,20.7901798 45.1047922,49.3633705 37.294259,51.3766405 C34.1794292,52.1795298 27.5439155,50.2127726 20.7905107,46.1421897 L25.0294931,76.1313749 L0,76.1313749 L8.61668863,35.9695996 Z"></path>
        </g>
        <path d="M98.4588258,46.9132303 C98.2108966,45.4531246 97.6049729,43.8316931 97.1160642,42.450296 C96.4857355,40.669493 95.5318382,39.0638743 94.4820985,37.5506448 C92.5057758,34.7016799 90.134932,32.1289944 87.5172902,29.9937364 C82.7358434,26.0934883 76.6492929,23.8438098 70.6639184,24.5743957 C67.6418965,24.943242 64.7082824,26.0959757 62.2113728,28.0146519 C59.9554427,29.7481942 57.7854959,32.3000922 54.8643267,32.4834493 C51.6858541,32.6827969 48.7722811,29.8773615 46.2231674,28.1447075 C43.3490304,26.1913854 40.2914516,24.7680578 36.9322848,24.2147883 C31.3049045,23.2882306 26.0183866,25.1894949 22.1400876,29.8064705 C18.0130512,34.7196247 15.01301,41.9247433 17.7232616,48.4346326 C18.2270397,49.6447543 18.8751468,50.6649449 19.8052856,51.5104843 C20.6583304,52.2858434 21.9611712,53.1107729 22.3070439,54.3496773 C22.6744123,55.6665796 21.576994,57.3654759 21.1514413,58.5537439 C20.5418004,60.2561937 20.0412548,62.0432152 20.2192014,63.8936655 C20.511577,66.9325614 22.4213111,69.8335842 24.4378779,71.8309689 C26.4900018,73.8635326 29.0156802,75.0290586 31.7133252,75.5663377 C33.5146105,75.9250568 35.3554934,76.122983 37.1861941,75.9883079 C38.0949987,75.9215033 38.8969707,75.6690319 39.7774913,75.468263 C40.6337685,75.2730018 41.1123334,75.5004215 41.8388276,75.9700077 C45.2136718,78.1518156 48.8424254,78.9959336 52.7393111,78.6715052 C56.028172,78.3975355 59.8188715,77.6005005 62.5018088,75.3470909 C65.4813239,72.844408 65.4220083,69.3933138 64.7208889,65.706094 C65.463707,66.0742297 67.51874,66.3021824 66.2907305,64.8347922 C65.8042461,64.2536282 64.8850976,64.0171473 64.2609106,63.675307 C63.5340932,63.2773225 62.7961238,62.7629631 62.2317373,62.1137508 C59.9528568,59.4923833 62.2545261,54.1576142 65.1188041,53.2784949 C69.3743306,51.9724306 70.3270966,57.9907025 73.3649574,59.5474615 C75.1116143,60.4425713 76.9387593,59.2191243 78.2474185,57.9699149 C80.0003786,56.2964256 81.1950939,54.0794387 82.2265701,51.8233641 C83.0762208,49.9654516 83.8668792,48.0814214 84.7328538,46.2327478 C85.1372339,45.3694413 86.53721,42.9289434 85.8341511,41.9528154 C88.8821942,41.3450007 92.2770796,42.6116219 94.902156,44.2726742 C95.9871294,44.9593751 96.8143145,45.716434 97.3930855,46.9286877 C97.5170502,47.1884437 97.7869601,47.9606047 98.125883,47.9922302 C98.7568581,48.0512172 98.5210506,47.2801222 98.4588258,46.9132303" id="hair" fill="#191847"></path>
      </g>
      <g id="Bottom/Standing/Jogging" transform="translate(0.000000, 202.587623)">
        <polygon id="Leg" fill="#997659" points="140.819105 0 221.309587 134.565555 281.65429 248.32939 294.652004 248.32939 193.543607 5.51402013e-13"></polygon>
        <g id="Accessories/Shoe/Flat-Sneaker" transform="translate(270.805972, 215.561553)" fill="#E4E4E4">
          <path d="M2.90101634,27.5159711 C1.68915471,30.7510048 1.08322389,33.1715576 1.08322389,34.7776295 C1.08322389,36.7309922 1.40863973,39.5814342 2.05947141,43.3289555 C4.32550923,43.3289555 24.6907726,43.3289555 63.1552616,43.3289555 C64.7429247,38.080202 63.8264335,35.2465689 60.4057881,34.8280561 C56.9851428,34.4095434 54.1435546,34.0316599 51.8810236,33.6944057 L23.4842859,21.0349984 C22.9378762,20.7914062 22.2974531,21.0368884 22.053861,21.5832981 C22.0496938,21.5926456 22.0456593,21.6020518 22.0417587,21.6115137 L20.2164382,26.0392887 C17.0498153,27.5167596 14.4766054,28.2554951 12.4968086,28.2554951 C10.8882707,28.2554951 8.66686616,27.6058583 5.8325951,26.3065849 L5.83260102,26.3065719 C4.74493521,25.8079692 3.45901046,26.2854991 2.96040771,27.373165 C2.9389172,27.420045 2.91910746,27.4676773 2.90101634,27.5159711 Z" id="shoe"></path>
        </g>
        <path d="M264.89488,230.11238 L289.960742,222.529813 C278.978705,189.699447 265.518659,153.570834 249.580605,114.143973 C233.64255,74.7171116 216.525672,36.6691207 198.229971,2.84217094e-14 L127.43487,2.84217094e-14 C147.775755,46.3847539 169.339822,88.531257 192.127069,126.439509 C214.914315,164.347762 239.170253,198.905385 264.89488,230.11238 Z" id="Pant" fill="#DB2721"></path>
        <path d="M135.52932,2.84217094e-14 C127.93253,47.2872601 113.280403,107.702209 111.897637,109.566632 C110.975793,110.809581 77.7891793,121.930063 12.3377948,142.928077 L15.1454578,154.389667 C93.1960803,143.128296 134.322102,134.391261 138.523523,128.178562 C144.825654,118.859514 176.293047,45.2388276 188.480956,2.84217094e-14 L135.52932,2.84217094e-14 Z" id="Leg" fill="#B28B67"></path>
        <path d="M35.3450622,133.02041 L40.2904549,151.480129 C98.667773,156.600183 134.436845,152.900622 147.597671,140.381446 C160.758498,127.862271 175.757955,81.0684551 192.596043,-1.13686838e-13 L125.088686,-1.13686838e-13 C114.42047,66.3841564 108.456243,100.969601 107.196005,103.756335 C105.935767,106.543068 81.9854524,116.29776 35.3450622,133.02041 Z" id="Pant" fill="#FF4133"></path>
        <g id="Accessories/Shoe/Flat-Sneaker" transform="translate(26.538985, 166.816479) rotate(80.000000) translate(-26.538985, -166.816479) translate(-6.499343, 145.152001)" fill="#E4E4E4">
          <path d="M2.90101634,27.5159711 C1.68915471,30.7510048 1.08322389,33.1715576 1.08322389,34.7776295 C1.08322389,36.7309922 1.40863973,39.5814342 2.05947141,43.3289555 C4.32550923,43.3289555 24.6907726,43.3289555 63.1552616,43.3289555 C64.7429247,38.080202 63.8264335,35.2465689 60.4057881,34.8280561 C56.9851428,34.4095434 54.1435546,34.0316599 51.8810236,33.6944057 L23.4842859,21.0349984 C22.9378762,20.7914062 22.2974531,21.0368884 22.053861,21.5832981 C22.0496938,21.5926456 22.0456593,21.6020518 22.0417587,21.6115137 L20.2164382,26.0392887 C17.0498153,27.5167596 14.4766054,28.2554951 12.4968086,28.2554951 C10.8882707,28.2554951 8.66686616,27.6058583 5.8325951,26.3065849 L5.83260102,26.3065719 C4.74493521,25.8079692 3.45901046,26.2854991 2.96040771,27.373165 C2.9389172,27.420045 2.91910746,27.4676773 2.90101634,27.5159711 Z" id="shoe"></path>
        </g>
      </g>
      <g id="Body/Pointing-Forward" transform="translate(10, 115) rotate(-10.000000)">
        <path d="M165.442905,44.5318824 L201.641581,24.7060096 C207.6612,17.5576911 213.5922,12.0060203 219.434584,8.05099706 C221.219828,7.3056868 224.341768,6.85457179 221.422161,12.0365862 C218.502554,17.2186007 215.664619,22.8006078 217.152044,24.3970743 C218.639469,25.9935408 222.348496,23.7633475 224.122972,26.4158901 C225.305955,28.1842519 218.969376,30.9777657 205.113232,34.7964314 L178.810482,58.8794236 L165.442905,44.5318824 Z M222.136751,61.2595172 L238.037282,52.5246066 C240.268352,44.0351284 242.935323,39.7637848 246.038198,39.710576 C248.42185,38.6014863 244.270736,49.3287349 248.789387,48.3984698 C253.308038,47.4682047 264.336775,39.2657356 266.237082,40.9311468 C269.048462,43.3950152 266.541662,50.9605193 263.588057,54.7239524 C258.067772,61.7578043 253.497213,64.1631694 242.200369,67.3130095 C236.293796,68.9599085 229.907746,72.2609757 223.042218,77.2162112 L222.136751,61.2595172 Z" id="Skin" fill="#915B3C"></path>
        <path d="M148.985958,36.2409357 C161.529917,38.0920896 178.648308,38.0920896 198.258161,29.6037893 L202.784205,46.3173975 C188.561573,56.568277 169.692364,63.8528608 154.648576,61.0351451 C142.793241,58.8146299 138.988488,43.446554 148.985958,36.2409357 Z" id="Sleeve" fill="#2026A2" transform="translate(173.014579, 45.624657) rotate(-9.000000) translate(-173.014579, -45.624657) "></path>
        <path d="M164.886236,65.4534116 C178.34667,68.8103574 200.918985,64.8515908 232.603182,53.5771118 C240.462171,69.8359556 244.095185,81.4272642 243.502224,88.3510378 C216.321851,102.549013 193.025925,108.879165 173.833195,109.297052 C174.443114,120.685301 173.056959,131.521483 168.400445,141.422858 C158.827444,161.778405 102.772202,142.926899 83.9247117,146.637336 C72.1218592,108.306079 94.9430317,92.7284115 94.9613939,68.2018393 C94.9815025,41.3426291 116.548177,-1.42108547e-13 119.721281,-1.42108547e-13 L148.658242,1.26202713e-13 C150.254863,20.5127326 158.291104,43.1195412 164.886236,65.4534116 Z" id="Clothes" fill="#1F28CF"></path>
      </g>
      <!-- <g id="Body/Hoodie" stroke="none" stroke-width="1" fill="none" fill-rule="evenodd" transform="translate(23.827876, 88.835214)">
        <path d="M190.781205,92.2114854 L222.679476,115.635084 C231.330944,117.969562 238.558965,120.874047 244.363541,124.34854 C245.734683,125.597945 247.391836,128.128197 241.70538,127.690906 C236.018925,127.253615 230.01796,127.049392 229.233339,128.988954 C228.448719,130.928516 231.889854,133.24802 230.303794,135.864997 C229.246421,137.609648 224.250967,133.234999 215.31743,122.74105 L183.729774,109.642447 L190.781205,92.2114854 Z M68.3079281,93.0198914 L89.2053198,93.1020711 C76.3021447,134.755739 69.3363474,156.856914 68.3079281,159.405597 C65.9939846,165.140133 70.8906002,173.873732 72.9845874,178.567103 C66.1645409,181.61887 66.8912241,170.316929 58.2879189,174.319492 C50.4352209,177.972846 44.4616931,184.59248 35.3890352,178.994371 C34.2736052,178.306117 33.0512757,175.714714 36.0045784,173.68967 C43.3623323,168.644547 53.9653015,159.814672 55.3979297,156.908251 C57.3515741,152.944826 61.6549068,131.648706 68.3079281,93.0198914 Z" id="Skin" fill="#B28B67"></path>
        <path d="M122.731734,9.58031077 L131.216685,7.34914009 C165.5935,32.1628362 183.361709,84.0563407 224.996623,108.72736 L216.58973,121.240539 C147.889238,118.771641 125.383314,55.5469019 122.731734,9.58031077 Z" id="Coat-Back" fill="#E87613" transform="translate(173.864178, 64.294840) rotate(5.000000) translate(-173.864178, -64.294840) "></path>
        <path d="M90,114 C124.671756,114 150.175573,114 166.511451,114 C170.007634,114 169.348845,108.951637 168.84345,106.404206 C163.010588,77.0037663 140.241304,45.3115155 140.241304,3.4607303 L118.1718,0 C99.917485,29.3584068 93.6048263,65.5045499 90,114 Z" id="Shirt" fill="#DDE3E9"></path>
        <path d="M90.6148413,28.8579585 C87.4095228,27.9365884 84.8712423,25.7876656 83,22.4111902 C74.933557,7.85607578 77.8467271,-0.157592785 86.4671964,-2.7917309 C95.0876658,-5.42586901 102.775319,-2.04281037e-14 116.510031,-7.10542736e-15 C117.257085,-6.21724894e-15 117.941303,0.0468325343 118.562683,0.140497603 L125.471587,0.534739944 C145.293986,67.7151944 150.760885,112.536948 141.872285,135 L81.6518141,135 C78.0838152,143.319871 74.6695413,150.319871 71.4089926,156 L55,156 C53.4556832,106.067091 65.327297,63.6864104 90.6148413,28.8579585 Z" id="Coat-Front" fill="#FF9B21"></path>
        <path d="M94.7652287,100.497634 C96.6591508,116.344024 99.7374079,127.844812 104,135 L81.6518141,135 C85.813785,125.295103 90.1849231,113.794314 94.7652283,100.497633 Z" id="Shade" fill-opacity="0.1" fill="#000000"></path>
      </g> -->
    </g>
  </g>
</svg>